<svg width="15" height="15" viewBox="0 0 15 15" fill="none" xmlns="http://www.w3.org/2000/svg">
<path d="M2.59995 4.7C1.44015 4.7 0.499951 3.7598 0.499951 2.6C0.499951 1.4402 1.44015 0.5 2.59995 0.5C3.75975 0.5 4.69995 1.4402 4.69995 2.6C4.69995 3.7598 3.75975 4.7 2.59995 4.7Z" stroke="#1A1A1A" stroke-linecap="round" stroke-linejoin="round"/>
<path d="M12.4 14.4998C11.2402 14.4998 10.3 13.5596 10.3 12.3998C10.3 11.24 11.2402 10.2998 12.4 10.2998C13.5598 10.2998 14.5 11.24 14.5 12.3998C14.5 13.5596 13.5598 14.4998 12.4 14.4998Z" stroke="#1A1A1A" stroke-linecap="round" stroke-linejoin="round"/>
<path d="M4.69995 2.6001H5.52832C6.62175 2.6001 7.5125 3.47821 7.52811 4.57153L7.61179 10.4287C7.62741 11.522 8.51815 12.4001 9.61158 12.4001H10.3" stroke="#1A1A1A"/>
</svg>
