<svg width="13" height="13" viewBox="0 0 13 13" fill="none" xmlns="http://www.w3.org/2000/svg">
<path d="M2.3001 4.1C1.30598 4.1 0.500098 3.29411 0.500098 2.3C0.500098 1.30589 1.30598 0.5 2.3001 0.5C3.29421 0.5 4.1001 1.30589 4.1001 2.3C4.1001 3.29411 3.29421 4.1 2.3001 4.1Z" stroke="#F1F1F1" stroke-linecap="round" stroke-linejoin="round"/>
<path d="M10.7002 12.5001C9.70613 12.5001 8.90024 11.6943 8.90024 10.7001C8.90024 9.70603 9.70613 8.90015 10.7002 8.90015C11.6944 8.90015 12.5002 9.70603 12.5002 10.7001C12.5002 11.6943 11.6944 12.5001 10.7002 12.5001Z" stroke="#F1F1F1" stroke-linecap="round" stroke-linejoin="round"/>
<path d="M4.1001 2.2998H4.52847C5.62189 2.2998 6.51264 3.17792 6.52826 4.27124L6.59193 8.72837C6.60755 9.82169 7.4983 10.6998 8.59173 10.6998H8.9001" stroke="#F1F1F1"/>
</svg>
