<svg width="20" height="20" viewBox="0 0 20 20" fill="none" xmlns="http://www.w3.org/2000/svg">
<path d="M2.5 5.41675H17.5C16.6463 5.41675 16.2194 5.41675 15.8788 5.54494C15.3398 5.74781 14.9144 6.17322 14.7115 6.71225C14.5833 7.05284 14.5833 7.4797 14.5833 8.33341V12.2501C14.5833 14.1357 14.5833 15.0785 13.9975 15.6643C13.4118 16.2501 12.469 16.2501 10.5833 16.2501H9.41667C7.53105 16.2501 6.58824 16.2501 6.00245 15.6643C5.41667 15.0785 5.41667 14.1357 5.41667 12.2501V8.33341C5.41667 7.47969 5.41667 7.05284 5.28848 6.71225C5.0856 6.17322 4.6602 5.74781 4.12117 5.54494C3.78058 5.41675 3.35372 5.41675 2.5 5.41675Z" stroke="#1A1A1A" stroke-linecap="round" stroke-linejoin="round"/>
<path d="M7.91659 2.91679C7.91659 2.91679 8.33325 2.08325 9.99992 2.08325C11.6666 2.08325 12.0833 2.91659 12.0833 2.91659" stroke="#1A1A1A" stroke-linecap="round"/>
</svg>
