<svg width="17" height="17" viewBox="0 0 17 17" fill="none" xmlns="http://www.w3.org/2000/svg">
<path d="M2.0144 4.3645H14.1009C13.413 4.3645 13.0691 4.3645 12.7946 4.46779C12.3603 4.63126 12.0175 4.97404 11.854 5.40837C11.7507 5.68281 11.7507 6.02676 11.7507 6.71465V9.87057C11.7507 11.3899 11.7507 12.1496 11.2787 12.6216C10.8067 13.0936 10.047 13.0936 8.52768 13.0936H7.58762C6.06825 13.0936 5.30857 13.0936 4.83656 12.6216C4.36456 12.1496 4.36456 11.3899 4.36456 9.87057V6.71465C4.36456 6.02676 4.36456 5.68281 4.26127 5.40837C4.0978 4.97404 3.75502 4.63126 3.32069 4.46779C3.04625 4.3645 2.7023 4.3645 2.0144 4.3645Z" stroke="#9E9E9E" stroke-width="0.805766" stroke-linecap="round" stroke-linejoin="round"/>
<path d="M6.37897 2.35035C6.37897 2.35035 6.7147 1.67871 8.05765 1.67871C9.40059 1.67871 9.73633 2.35018 9.73633 2.35018" stroke="#9E9E9E" stroke-width="0.805766" stroke-linecap="round"/>
</svg>
