<svg width="17" height="17" viewBox="0 0 17 17" fill="none" xmlns="http://www.w3.org/2000/svg">
<path d="M1.61157 3.03809V6.79833H5.37181" stroke="#9E9E9E" stroke-width="0.805766" stroke-linecap="round" stroke-linejoin="round"/>
<path d="M3.18461 9.93187C3.59096 11.0852 4.36114 12.0753 5.37912 12.7529C6.39709 13.4305 7.6077 13.7589 8.82855 13.6886C10.0494 13.6184 11.2143 13.1532 12.1478 12.3633C13.0814 11.5734 13.7329 10.5015 14.0042 9.30915C14.2755 8.11677 14.152 6.8685 13.6522 5.75243C13.1525 4.63635 12.3035 3.71293 11.2333 3.1213C10.1631 2.52967 8.92956 2.30188 7.71862 2.47225C6.50769 2.64263 5.38492 3.20193 4.51949 4.0659L1.61157 6.79834" stroke="#9E9E9E" stroke-width="0.805766" stroke-linecap="round" stroke-linejoin="round"/>
<path d="M8.43481 4.84399V8.1342L10.0016 8.91759" stroke="#9E9E9E" stroke-width="0.805766" stroke-linecap="round" stroke-linejoin="round"/>
</svg>
