<svg width="20" height="20" viewBox="0 0 20 20" fill="none" xmlns="http://www.w3.org/2000/svg">
<path d="M2 3.77051V8.43717H6.66666" stroke="#1A1A1A" stroke-linecap="round" stroke-linejoin="round"/>
<path d="M3.95222 12.3261C4.45653 13.7575 5.41237 14.9862 6.67573 15.8271C7.93909 16.6681 9.44152 17.0756 10.9567 16.9884C12.4718 16.9012 13.9175 16.324 15.0761 15.3437C16.2346 14.3633 17.0432 13.033 17.3799 11.5532C17.7167 10.0734 17.5634 8.52426 16.9431 7.13915C16.3229 5.75404 15.2693 4.60803 13.9411 3.87378C12.6129 3.13954 11.082 2.85684 9.57919 3.06828C8.07635 3.27972 6.68293 3.97385 5.60889 5.04608L2 8.43718" stroke="#1A1A1A" stroke-linecap="round" stroke-linejoin="round"/>
<path d="M10.4678 6.01172V10.095L12.4122 11.0673" stroke="#1A1A1A" stroke-linecap="round" stroke-linejoin="round"/>
</svg>
