<svg width="17" height="17" viewBox="0 0 17 17" fill="none" xmlns="http://www.w3.org/2000/svg">
<path d="M9.40056 12.7581H10.4749C11.3649 12.7581 12.0865 12.0365 12.0865 11.1465V9.98747C12.0865 9.24799 12.5897 8.60341 13.3071 8.42406L13.9906 8.25318C14.1941 8.20232 14.1941 7.91319 13.9906 7.86233L13.3071 7.69145C12.5897 7.5121 12.0865 6.86751 12.0865 6.12803V4.96898C12.0865 4.07896 11.3649 3.35745 10.4749 3.35745H9.40056" stroke="#9E9E9E" stroke-width="0.805766" stroke-linejoin="round"/>
<path d="M6.71467 3.35742H5.64032C4.75029 3.35742 4.02878 4.07893 4.02878 4.96895V6.12801C4.02878 6.86749 3.52551 7.51207 2.8081 7.69142L2.1246 7.8623C1.92116 7.91316 1.92116 8.20229 2.1246 8.25315L2.8081 8.42403C3.52551 8.60338 4.02878 9.24796 4.02878 9.98744V11.1465C4.02878 12.0365 4.75029 12.758 5.64032 12.758H6.71467" stroke="#9E9E9E" stroke-width="0.805766" stroke-linejoin="round"/>
</svg>
