<svg width="20" height="20" viewBox="0 0 20 20" fill="none" xmlns="http://www.w3.org/2000/svg">
<path d="M11.6666 15.8333H12.9999C14.1045 15.8333 14.9999 14.9378 14.9999 13.8333V12.3948C14.9999 11.4771 15.6245 10.6771 16.5148 10.4545L17.3631 10.2425C17.6156 10.1793 17.6156 9.8205 17.3631 9.75738L16.5148 9.54532C15.6245 9.32273 14.9999 8.52277 14.9999 7.60503V6.16658C14.9999 5.06202 14.1045 4.16658 12.9999 4.16658H11.6666" stroke="#1A1A1A" stroke-linejoin="round"/>
<path d="M8.33341 4.16675H7.00008C5.89551 4.16675 5.00008 5.06218 5.00008 6.16675V7.6052C5.00008 8.52293 4.37549 9.3229 3.48515 9.54548L2.63689 9.75755C2.3844 9.82067 2.3844 10.1795 2.63689 10.2426L3.48515 10.4547C4.37549 10.6773 5.00008 11.4772 5.00008 12.395V13.8334C5.00008 14.938 5.89551 15.8334 7.00008 15.8334H8.33341" stroke="#1A1A1A" stroke-linejoin="round"/>
</svg>
