<?xml version="1.0" encoding="UTF-8"?>
<svg xmlns="http://www.w3.org/2000/svg" xmlns:xlink="http://www.w3.org/1999/xlink" width="80px" height="80px" viewBox="0 0 80 80" version="1.1">
<g id="surface1">
<path style=" stroke:none;fill-rule:nonzero;fill:rgb(100%,100%,100%);fill-opacity:1;" d="M 23.820312 0.128906 L 56.789062 0.289062 L 79.988281 23.710938 L 79.828125 56.679688 L 56.410156 79.878906 L 23.441406 79.71875 L 0.238281 56.308594 L 0.398438 23.339844 Z M 23.820312 0.128906 "/>
<path style=" stroke:none;fill-rule:evenodd;fill:rgb(0%,0%,0%);fill-opacity:1;" d="M 52.339844 43.300781 C 52.339844 43.25 52.320312 43.199219 52.308594 43.148438 C 52.308594 43.101562 52.339844 43.058594 52.339844 43.011719 C 52.339844 41.980469 51.980469 41.148438 51.378906 40.578125 C 50.789062 40.019531 50.019531 39.738281 49.261719 39.738281 C 48.671875 39.738281 48.070312 39.910156 47.558594 40.25 C 47.460938 39.449219 47.140625 38.789062 46.648438 38.308594 C 46.058594 37.75 45.289062 37.46875 44.53125 37.46875 C 43.871094 37.46875 43.210938 37.691406 42.660156 38.109375 C 42.5 37.648438 42.25 37.25 41.921875 36.929688 C 41.328125 36.371094 40.558594 36.089844 39.800781 36.089844 C 39.230469 36.089844 38.648438 36.25 38.140625 36.570312 L 38.140625 33.449219 C 38.140625 31.78125 36.71875 30.5 35.058594 30.5 C 33.398438 30.5 31.980469 31.78125 31.980469 33.449219 L 31.980469 45.128906 C 31.980469 45.128906 31.949219 45.171875 31.929688 45.210938 C 31.820312 45.378906 31.660156 45.609375 31.46875 45.890625 C 31.109375 46.449219 30.648438 47.199219 30.269531 47.941406 C 29.921875 48.648438 29.558594 49.429688 29.5 50.269531 C 29.441406 51.160156 29.730469 52.03125 30.488281 52.898438 C 31.140625 53.648438 32.300781 55.039062 33.300781 56.25 C 33.800781 56.851562 34.261719 57.410156 34.601562 57.820312 L 35.148438 58.480469 C 35.148438 58.480469 35.191406 58.53125 35.210938 58.550781 C 35.949219 59.238281 36.96875 59.621094 38.019531 59.621094 L 45.308594 59.621094 C 49.429688 59.621094 52.328125 56.640625 52.328125 53.488281 L 51.621094 53.488281 L 52.328125 53.488281 L 52.328125 43.289062 Z M 50.921875 43.300781 L 50.921875 53.5 C 50.921875 55.769531 48.769531 58.210938 45.320312 58.210938 L 38.03125 58.210938 C 37.328125 58.210938 36.679688 57.960938 36.21875 57.550781 L 35.699219 56.921875 C 35.359375 56.511719 34.898438 55.949219 34.398438 55.351562 C 33.398438 54.140625 32.21875 52.738281 31.570312 51.980469 C 31.019531 51.351562 30.898438 50.839844 30.929688 50.371094 C 30.960938 49.851562 31.191406 49.300781 31.550781 48.578125 C 31.679688 48.308594 31.839844 48.050781 31.988281 47.78125 L 31.988281 49.890625 C 31.988281 50.28125 32.308594 50.601562 32.699219 50.601562 C 33.089844 50.601562 33.410156 50.28125 33.410156 49.890625 L 33.410156 33.449219 C 33.410156 32.640625 34.109375 31.921875 35.070312 31.921875 C 36.03125 31.921875 36.730469 32.640625 36.730469 33.449219 L 36.730469 44.738281 C 36.730469 45.128906 37.050781 45.449219 37.441406 45.449219 C 37.539062 45.449219 37.628906 45.429688 37.710938 45.390625 C 37.769531 45.371094 37.820312 45.320312 37.859375 45.289062 C 37.878906 45.269531 37.910156 45.261719 37.929688 45.238281 C 37.980469 45.191406 38.011719 45.140625 38.039062 45.078125 C 38.050781 45.058594 38.070312 45.039062 38.078125 45.019531 C 38.121094 44.929688 38.140625 44.839844 38.140625 44.738281 L 38.140625 39.359375 C 38.140625 38.691406 38.371094 38.238281 38.660156 37.960938 C 38.960938 37.671875 39.371094 37.519531 39.800781 37.519531 C 40.230469 37.519531 40.640625 37.671875 40.929688 37.960938 C 41.21875 38.238281 41.449219 38.691406 41.449219 39.371094 L 41.449219 44.738281 C 41.449219 45.128906 41.769531 45.449219 42.160156 45.449219 C 42.550781 45.449219 42.871094 45.128906 42.871094 44.738281 L 42.871094 40.730469 C 42.871094 40.058594 43.101562 39.609375 43.390625 39.328125 C 43.691406 39.039062 44.101562 38.890625 44.53125 38.890625 C 44.960938 38.890625 45.371094 39.039062 45.671875 39.328125 C 45.960938 39.609375 46.191406 40.058594 46.191406 40.738281 L 46.191406 44.921875 C 46.191406 45.308594 46.511719 45.628906 46.898438 45.628906 C 47.289062 45.628906 47.609375 45.308594 47.609375 44.921875 L 47.609375 42.988281 C 47.609375 42.320312 47.839844 41.871094 48.128906 41.589844 C 48.429688 41.300781 48.839844 41.148438 49.269531 41.148438 C 49.699219 41.148438 50.109375 41.300781 50.410156 41.589844 C 50.699219 41.871094 50.929688 42.320312 50.929688 43 C 50.929688 43.050781 50.949219 43.101562 50.960938 43.148438 C 50.960938 43.199219 50.929688 43.238281 50.929688 43.289062 Z M 50.921875 43.300781 "/>
<path style=" stroke:none;fill-rule:evenodd;fill:rgb(0%,0%,0%);fill-opacity:1;" d="M 51.351562 22.808594 C 48.820312 22.808594 46.75 24.691406 46.398438 27.121094 L 41.558594 27.121094 C 40.738281 24.089844 38.378906 21.550781 35.140625 20.679688 C 30.289062 19.378906 25.300781 22.269531 24 27.109375 C 22.710938 31.941406 24.859375 36.71875 29.71875 38.019531 C 30.128906 38.128906 30.550781 37.878906 30.660156 37.480469 C 30.769531 37.070312 30.519531 36.648438 30.121094 36.539062 C 26.109375 35.46875 24.398438 31.550781 25.488281 27.511719 C 26.570312 23.480469 30.71875 21.078125 34.75 22.160156 C 38.78125 23.238281 41.179688 27.390625 40.101562 31.421875 C 39.988281 31.828125 40.238281 32.25 40.640625 32.359375 C 41.050781 32.46875 41.46875 32.21875 41.578125 31.820312 C 41.871094 30.71875 41.941406 29.621094 41.828125 28.550781 L 46.410156 28.550781 C 46.761719 30.980469 48.828125 32.859375 51.359375 32.859375 C 54.140625 32.859375 56.390625 30.609375 56.390625 27.828125 C 56.390625 25.050781 54.140625 22.800781 51.359375 22.800781 Z M 25.328125 27.46875 C 24.230469 31.570312 25.960938 35.578125 30.070312 36.679688 C 30.398438 36.769531 30.601562 37.121094 30.511719 37.449219 C 30.441406 37.699219 30.230469 37.871094 29.988281 37.910156 C 30.230469 37.878906 30.441406 37.699219 30.511719 37.449219 C 30.601562 37.121094 30.398438 36.769531 30.070312 36.679688 C 25.96875 35.578125 24.238281 31.578125 25.328125 27.46875 C 26.089844 24.648438 28.320312 22.609375 30.980469 21.96875 C 28.320312 22.609375 26.089844 24.648438 25.328125 27.46875 Z M 35.089844 20.820312 C 33.699219 20.449219 32.289062 20.429688 30.96875 20.710938 C 32.289062 20.441406 33.699219 20.449219 35.089844 20.820312 C 35.089844 20.820312 35.089844 20.820312 35.109375 20.820312 C 35.109375 20.820312 35.101562 20.820312 35.089844 20.820312 Z M 41.398438 27.121094 C 41.398438 27.121094 41.398438 27.121094 41.398438 27.109375 C 41.398438 27.109375 41.398438 27.109375 41.398438 27.121094 Z M 41.421875 31.789062 C 41.351562 32.039062 41.140625 32.210938 40.898438 32.25 C 41.140625 32.21875 41.351562 32.039062 41.421875 31.789062 C 41.5 31.511719 41.550781 31.230469 41.601562 30.941406 C 41.550781 31.21875 41.488281 31.5 41.421875 31.789062 Z M 41.671875 28.558594 C 41.671875 28.558594 41.671875 28.570312 41.671875 28.578125 C 41.671875 28.578125 41.671875 28.570312 41.671875 28.558594 Z M 51.351562 31.429688 C 49.371094 31.429688 47.761719 29.820312 47.761719 27.839844 C 47.761719 25.859375 49.371094 24.25 51.351562 24.25 C 53.328125 24.25 54.941406 25.859375 54.941406 27.839844 C 54.941406 29.820312 53.328125 31.429688 51.351562 31.429688 Z M 51.351562 31.429688 "/>
</g>
</svg>
