<svg width="65" height="65" viewBox="0 0 65 65" fill="none" xmlns="http://www.w3.org/2000/svg">
<g filter="url(#filter0_d_664_86)">
<path d="M20.8949 0.10511L44.3722 0.215745L60.8949 16.8949L60.7843 40.3722L44.1051 56.8949L20.6278 56.7843L4.10509 40.1051L4.21573 16.6278L20.8949 0.10511Z" fill="white"/>
<path d="M26.9991 33.4724C26.9991 33.4724 26.3275 34.4036 25.8817 35.2943C25.4359 36.1851 25.1401 36.9702 25.9567 37.9138C26.7733 38.8573 28.8845 41.4235 28.8845 41.4235C29.2593 41.7748 29.7876 41.9749 30.3423 41.9749C31.417 41.9749 33.1747 41.9749 34.9146 41.9749C37.2892 41.9749 38.8723 40.2744 38.8723 38.5739C38.8723 38.5739 38.8723 33.6344 38.8723 32.1768" fill="white"/>
<path d="M26.9991 33.4724C26.9991 33.4724 26.3275 34.4036 25.8817 35.2943C25.4359 36.1851 25.1401 36.9702 25.9567 37.9138C26.7733 38.8573 28.8845 41.4235 28.8845 41.4235C29.2593 41.7748 29.7876 41.9749 30.3423 41.9749C31.417 41.9749 33.1747 41.9749 34.9146 41.9749C37.2892 41.9749 38.8723 40.2744 38.8723 38.5739C38.8723 38.5739 38.8723 33.6344 38.8723 32.1768" stroke="black" stroke-linecap="round" stroke-linejoin="round"/>
<path d="M35.9043 32.533C35.9043 32.533 35.9043 32.416 35.9043 31.9986C35.9043 29.8608 38.8726 29.8608 38.8726 31.9986" fill="white"/>
<path d="M35.9043 32.533C35.9043 32.533 35.9043 32.416 35.9043 31.9986C35.9043 29.8608 38.8726 29.8608 38.8726 31.9986" stroke="black" stroke-linecap="round" stroke-linejoin="round"/>
<path d="M32.9355 31.6424C32.9355 31.6424 32.9355 31.4108 32.9355 30.576C32.9355 28.4382 35.9038 28.4382 35.9038 30.576C35.9038 30.7847 35.9038 30.8992 35.9038 31.108C35.9038 31.5254 35.9038 33.2048 35.9038 33.2048" fill="white"/>
<path d="M32.9355 31.6424C32.9355 31.6424 32.9355 31.4108 32.9355 30.576C32.9355 28.4382 35.9038 28.4382 35.9038 30.576C35.9038 30.7847 35.9038 30.8992 35.9038 31.108C35.9038 31.5254 35.9038 33.2048 35.9038 33.2048" stroke="black" stroke-linecap="round" stroke-linejoin="round"/>
<path d="M29.9678 33.0877C29.9678 33.0877 29.9678 30.7582 29.9678 29.7147C29.9678 27.5769 32.9361 27.5769 32.9361 29.7147C32.9361 29.7147 32.9361 29.8303 32.9361 30.039C32.9361 30.8738 32.9361 33.0877 32.9361 33.0877" fill="white"/>
<path d="M29.9678 33.0877C29.9678 33.0877 29.9678 30.7582 29.9678 29.7147C29.9678 27.5769 32.9361 27.5769 32.9361 29.7147C32.9361 29.7147 32.9361 29.8303 32.9361 30.039C32.9361 30.8738 32.9361 33.0877 32.9361 33.0877" stroke="black" stroke-linecap="round" stroke-linejoin="round"/>
<path d="M29.9673 33.0877C29.9673 33.0877 29.9673 30.3477 29.9673 29.3041C29.9673 28.2207 29.9673 27.1211 29.9673 26.0074C29.9673 25.2326 29.3028 24.6055 28.4832 24.6055C27.6635 24.6055 26.999 25.2336 26.999 26.0084V33.5129V36.3187" fill="white"/>
<path d="M29.9673 33.0877C29.9673 33.0877 29.9673 30.3477 29.9673 29.3041C29.9673 28.2207 29.9673 27.1211 29.9673 26.0074C29.9673 25.2326 29.3028 24.6055 28.4832 24.6055C27.6635 24.6055 26.999 25.2336 26.999 26.0084V33.5129V36.3187" stroke="black" stroke-linecap="round" stroke-linejoin="round"/>
<path d="M21.4712 22.328C20.6431 25.2768 21.928 28.2116 24.89 29.0452C25.1191 29.1096 25.3619 28.9736 25.4262 28.7446C25.4905 28.5155 25.3541 28.2728 25.125 28.2083C22.6374 27.5083 21.6073 25.0613 22.3087 22.5636C23.0083 20.0724 25.6067 18.616 28.1003 19.3177C30.5939 20.0195 32.0537 22.6178 31.3541 25.1091C31.2898 25.3381 31.4262 25.5809 31.6553 25.6453C31.8844 25.7098 32.1272 25.5738 32.1915 25.3448C33.0212 22.3905 31.2921 19.313 28.3353 18.4809C25.3785 17.6488 22.3009 19.3737 21.4712 22.328Z" fill="black" stroke="black" stroke-width="0.1"/>
<line x1="32.3496" y1="23.7195" x2="38.6004" y2="23.7195" stroke="black"/>
<circle cx="41.7252" cy="23.5946" r="4.37557" fill="black"/>
</g>
<defs>
<filter id="filter0_d_664_86" x="0" y="0" width="65" height="65" filterUnits="userSpaceOnUse" color-interpolation-filters="sRGB">
<feFlood flood-opacity="0" result="BackgroundImageFix"/>
<feColorMatrix in="SourceAlpha" type="matrix" values="0 0 0 0 0 0 0 0 0 0 0 0 0 0 0 0 0 0 127 0" result="hardAlpha"/>
<feOffset dy="4"/>
<feGaussianBlur stdDeviation="2"/>
<feComposite in2="hardAlpha" operator="out"/>
<feColorMatrix type="matrix" values="0 0 0 0 0 0 0 0 0 0 0 0 0 0 0 0 0 0 0.25 0"/>
<feBlend mode="normal" in2="BackgroundImageFix" result="effect1_dropShadow_664_86"/>
<feBlend mode="normal" in="SourceGraphic" in2="effect1_dropShadow_664_86" result="shape"/>
</filter>
</defs>
</svg>
