<?xml version="1.0" encoding="UTF-8"?>
<svg id="Layer_1" data-name="Layer 1" xmlns="http://www.w3.org/2000/svg" viewBox="0 0 80 80">
  <defs>
    <style>
      .cls-1 {
        fill: #fff;
      }

      .cls-2 {
        fill-rule: evenodd;
      }
    </style>
  </defs>
  <path class="cls-1" d="m23.82.13l32.97.16,23.2,23.42-.16,32.97-23.42,23.2-32.97-.16L.24,56.31l.16-32.97L23.82.13Z"/>
  <g>
    <path class="cls-2" d="m52.34,43.3c0-.05-.02-.1-.03-.15,0-.05.03-.09.03-.14,0-1.03-.36-1.86-.96-2.43-.59-.56-1.36-.84-2.12-.84-.59,0-1.19.17-1.7.51-.1-.8-.42-1.46-.91-1.94-.59-.56-1.36-.84-2.12-.84-.66,0-1.32.22-1.87.64-.16-.46-.41-.86-.74-1.18-.59-.56-1.36-.84-2.12-.84-.57,0-1.15.16-1.66.48v-3.12c0-1.67-1.42-2.95-3.08-2.95s-3.08,1.28-3.08,2.95v11.68s-.03.04-.05.08c-.11.17-.27.4-.46.68-.36.56-.82,1.31-1.2,2.05-.35.71-.71,1.49-.77,2.33-.06.89.23,1.76.99,2.63.65.75,1.81,2.14,2.81,3.35.5.6.96,1.16,1.3,1.57l.55.66s.04.05.06.07c.74.69,1.76,1.07,2.81,1.07h7.29c4.12,0,7.02-2.98,7.02-6.13h-.71.71v-10.2Zm-1.42,0v10.2c0,2.27-2.15,4.71-5.6,4.71h-7.29c-.7,0-1.35-.25-1.81-.66l-.52-.63c-.34-.41-.8-.97-1.3-1.57-1-1.21-2.18-2.61-2.83-3.37-.55-.63-.67-1.14-.64-1.61.03-.52.26-1.07.62-1.79.13-.27.29-.53.44-.8v2.11c0,.39.32.71.71.71s.71-.32.71-.71v-16.44c0-.81.7-1.53,1.66-1.53s1.66.72,1.66,1.53v5.91s0,0,0,0v5.38c0,.39.32.71.71.71,0,0,0,0,0,0h0s0,0,0,0c.1,0,.19-.02.27-.06.06-.02.11-.07.15-.1.02-.02.05-.03.07-.05.05-.05.08-.1.11-.16.01-.02.03-.04.04-.06.04-.09.06-.18.06-.28v-5.38c0-.67.23-1.12.52-1.4.3-.29.71-.44,1.14-.44s.84.15,1.13.44c.29.28.52.73.52,1.41v1.37s0,0,0,0v1.7s0,0,0,0v2.3c0,.39.32.71.71.71s.71-.32.71-.71v-4.01c0-.67.23-1.12.52-1.4.3-.29.71-.44,1.14-.44s.84.15,1.14.44c.29.28.52.73.52,1.41v2.26s0,0,0,0v.85s0,0,0,0v1.07c0,.39.32.71.71.71s.71-.32.71-.71v-1.93c0-.67.23-1.12.52-1.4.3-.29.71-.44,1.14-.44s.84.15,1.14.44c.29.28.52.73.52,1.41,0,.05.02.1.03.15,0,.05-.03.09-.03.14Z"/>
    <path class="cls-2" d="m51.35,22.81c-2.53,0-4.6,1.88-4.95,4.31h-4.84c-.82-3.03-3.18-5.57-6.42-6.44-4.85-1.3-9.84,1.59-11.14,6.43-1.29,4.83.86,9.61,5.72,10.91.41.11.83-.14.94-.54.11-.41-.14-.83-.54-.94-4.01-1.07-5.72-4.99-4.63-9.03,1.08-4.03,5.23-6.43,9.26-5.35,4.03,1.08,6.43,5.23,5.35,9.26-.11.41.14.83.54.94.41.11.83-.14.94-.54.29-1.1.36-2.2.25-3.27h4.58c.35,2.43,2.42,4.31,4.95,4.31,2.78,0,5.03-2.25,5.03-5.03s-2.25-5.03-5.03-5.03Zm-26.02,4.66c-1.1,4.1.63,8.11,4.74,9.21.33.09.53.44.44.77-.07.25-.28.42-.52.46.24-.03.45-.21.52-.46.09-.33-.11-.68-.44-.77-4.1-1.1-5.83-5.1-4.74-9.21.76-2.82,2.99-4.86,5.65-5.5-2.66.64-4.89,2.68-5.65,5.5Zm9.76-6.65c-1.39-.37-2.8-.39-4.12-.11,1.32-.27,2.73-.26,4.12.11,0,0,0,0,.02,0,0,0-.01,0-.02,0Zm6.31,6.3h0s0,0,0-.01c0,0,0,0,0,.01Zm.02,4.67c-.07.25-.28.42-.52.46.24-.03.45-.21.52-.46.08-.28.13-.56.18-.85-.05.28-.11.56-.18.85Zm.25-3.23h0s0,.01,0,.02c0,0,0-.01,0-.02Zm9.68,2.87c-1.98,0-3.59-1.61-3.59-3.59s1.61-3.59,3.59-3.59,3.59,1.61,3.59,3.59-1.61,3.59-3.59,3.59Z"/>
  </g>
</svg>