<svg data-v-d3f97b9e="" xmlns="http://www.w3.org/2000/svg" viewBox="0 0 372 90"><!----><!----><!----><g data-v-d3f97b9e="" id="523aab77-9d49-4da8-9751-c6268a48d222" fill="#2F190E" transform="matrix(5.455537298524597,0,0,5.455537298524597,107.68839590571918,8.671576558181805)"><path d="M5.53 11.26L5.53 11.26L5.53 11.26Q5.17 11.61 4.61 11.86L4.61 11.86L4.61 11.86Q4.06 12.11 3.58 12.14L3.58 12.14L3.58 12.14Q3.25 12.17 2.92 12.15L2.92 12.15L2.92 12.15Q2.59 12.12 2.21 12.05L2.21 12.05L2.21 12.05Q1.83 11.98 1.53 11.91L1.53 11.91L1.53 11.91Q1.23 11.84 1.08 11.77L1.08 11.77L1.08 11.77Q0.87 11.69 0.83 11.65L0.83 11.65L0.83 11.65Q0.78 11.61 0.81 11.45L0.81 11.45L0.91 10.49L0.91 10.49Q0.94 10.39 0.99 10.36L0.99 10.36L0.99 10.36Q1.04 10.33 1.20 10.40L1.20 10.40L1.20 10.40Q1.34 10.46 1.66 10.56L1.66 10.56L1.66 10.56Q1.97 10.65 2.33 10.71L2.33 10.71L2.33 10.71Q2.69 10.77 3.00 10.78L3.00 10.78L3.00 10.78Q3.30 10.79 3.61 10.72L3.61 10.72L3.61 10.72Q4.20 10.61 4.48 10.26L4.48 10.26L4.48 10.26Q4.76 9.91 4.76 9.42L4.76 9.42L4.76 9.42Q4.76 8.95 4.41 8.55L4.41 8.55L4.41 8.55Q4.06 8.15 3.61 7.84L3.61 7.84L3.61 7.84Q3.01 7.43 2.45 7.05L2.45 7.05L2.45 7.05Q1.89 6.66 1.53 6.28L1.53 6.28L1.53 6.28Q1.16 5.89 0.99 5.50L0.99 5.50L0.99 5.50Q0.81 5.11 0.81 4.63L0.81 4.63L0.81 4.63Q0.81 4.13 1.06 3.65L1.06 3.65L1.06 3.65Q1.32 3.18 1.74 2.81L1.74 2.81L1.74 2.81Q2.16 2.44 2.67 2.24L2.67 2.24L2.67 2.24Q3.18 2.04 3.88 2.04L3.88 2.04L3.88 2.04Q4.45 2.04 4.91 2.14L4.91 2.14L4.91 2.14Q5.38 2.23 5.71 2.32L5.71 2.32L5.71 2.32Q5.87 2.39 5.89 2.44L5.89 2.44L5.89 2.44Q5.91 2.49 5.89 2.60L5.89 2.60L5.73 3.50L5.73 3.50Q5.68 3.63 5.62 3.68L5.62 3.68L5.62 3.68Q5.56 3.74 5.39 3.68L5.39 3.68L5.39 3.68Q5.18 3.64 4.96 3.58L4.96 3.58L4.96 3.58Q4.73 3.51 4.50 3.47L4.50 3.47L4.50 3.47Q4.27 3.43 4.06 3.42L4.06 3.42L4.06 3.42Q3.85 3.40 3.65 3.42L3.65 3.42L3.65 3.42Q3.02 3.50 2.71 3.85L2.71 3.85L2.71 3.85Q2.39 4.20 2.39 4.72L2.39 4.72L2.39 4.72Q2.39 5.05 2.67 5.40L2.67 5.40L2.67 5.40Q2.95 5.75 3.64 6.20L3.64 6.20L3.64 6.20Q4.42 6.72 4.94 7.10L4.94 7.10L4.94 7.10Q5.46 7.48 5.78 7.83L5.78 7.83L5.78 7.83Q6.10 8.19 6.22 8.55L6.22 8.55L6.22 8.55Q6.34 8.90 6.34 9.32L6.34 9.32L6.34 9.32Q6.34 10.46 5.53 11.26ZM12.91 11.90L11.73 11.90L11.73 11.90Q11.56 11.90 11.56 11.73L11.56 11.73L11.56 8.01L11.56 8.01Q11.56 6.96 11.33 6.48L11.33 6.48L11.33 6.48Q11.09 5.99 10.56 5.99L10.56 5.99L10.56 5.99Q9.28 5.99 9.14 7.48L9.14 7.48L9.14 11.73L9.14 11.73Q9.14 11.90 8.99 11.90L8.99 11.90L7.81 11.90L7.81 11.90Q7.76 11.90 7.71 11.85L7.71 11.85L7.71 11.85Q7.66 11.80 7.66 11.73L7.66 11.73L7.66 1.54L7.66 1.54Q7.66 1.47 7.71 1.42L7.71 1.42L7.71 1.42Q7.76 1.37 7.81 1.37L7.81 1.37L8.90 1.37L8.90 1.37Q8.96 1.37 9.00 1.42L9.00 1.42L9.00 1.42Q9.04 1.47 9.04 1.54L9.04 1.54L9.04 5.32L9.04 5.32Q9.35 4.94 9.77 4.75L9.77 4.75L9.77 4.75Q10.18 4.56 10.61 4.56L10.61 4.56L10.61 4.56Q13.06 4.56 13.06 7.99L13.06 7.99L13.06 11.73L13.06 11.73Q13.06 11.80 13.01 11.85L13.01 11.85L13.01 11.85Q12.96 11.90 12.91 11.90L12.91 11.90ZM20.09 11.90L18.96 11.90L18.96 11.90Q18.90 11.90 18.85 11.87L18.85 11.87L18.85 11.87Q18.80 11.83 18.80 11.76L18.80 11.76L18.80 11.19L18.80 11.19Q18.54 11.65 18.12 11.89L18.12 11.89L18.12 11.89Q17.71 12.12 17.16 12.12L17.16 12.12L17.16 12.12Q16.11 12.12 15.44 11.33L15.44 11.33L15.44 11.33Q14.76 10.53 14.76 9.04L14.76 9.04L14.76 4.90L14.76 4.90Q14.76 4.83 14.80 4.77L14.80 4.77L14.80 4.77Q14.85 4.70 14.91 4.70L14.91 4.70L16.10 4.70L16.10 4.70Q16.16 4.70 16.20 4.77L16.20 4.77L16.20 4.77Q16.25 4.84 16.25 4.91L16.25 4.91L16.25 8.82L16.25 8.82Q16.25 9.87 16.55 10.30L16.55 10.30L16.55 10.30Q16.84 10.74 17.33 10.74L17.33 10.74L17.33 10.74Q17.93 10.74 18.33 10.16L18.33 10.16L18.33 10.16Q18.72 9.59 18.72 8.46L18.72 8.46L18.72 4.90L18.72 4.90Q18.72 4.83 18.77 4.77L18.77 4.77L18.77 4.77Q18.82 4.70 18.90 4.70L18.90 4.70L20.06 4.70L20.06 4.70Q20.12 4.70 20.17 4.78L20.17 4.78L20.17 4.78Q20.22 4.86 20.22 4.93L20.22 4.93L20.22 10.09L20.22 10.09Q20.22 10.53 20.23 10.95L20.23 10.95L20.23 10.95Q20.24 11.37 20.24 11.72L20.24 11.72L20.24 11.72Q20.24 11.90 20.09 11.90L20.09 11.90ZM26.98 2.79L26.98 2.79L26.98 2.79Q26.78 2.69 26.49 2.61L26.49 2.61L26.49 2.61Q26.19 2.53 25.84 2.53L25.84 2.53L25.84 2.53Q25.47 2.52 25.28 2.70L25.28 2.70L25.28 2.70Q25.09 2.88 25.03 3.15L25.03 3.15L25.03 3.15Q25.00 3.32 24.98 3.54L24.98 3.54L24.98 3.54Q24.96 3.77 24.96 4.06L24.96 4.06L24.96 5.03L27.12 5.03L27.12 5.03Q27.29 5.03 27.29 5.19L27.29 5.19L27.29 6.29L27.29 6.29Q27.29 6.36 27.24 6.41L27.24 6.41L27.24 6.41Q27.19 6.45 27.12 6.45L27.12 6.45L24.96 6.45L24.96 11.73L24.96 11.73Q24.96 11.90 24.79 11.90L24.79 11.90L23.65 11.90L23.65 11.90Q23.48 11.90 23.48 11.73L23.48 11.73L23.48 6.45L21.91 6.45L21.91 6.45Q21.84 6.45 21.79 6.41L21.79 6.41L21.79 6.41Q21.74 6.36 21.74 6.29L21.74 6.29L21.74 5.19L21.74 5.19Q21.74 5.12 21.79 5.08L21.79 5.08L21.79 5.08Q21.84 5.03 21.91 5.03L21.91 5.03L23.46 5.03L23.46 4.16L23.46 4.16Q23.46 3.49 23.55 2.94L23.55 2.94L23.55 2.94Q23.65 2.39 23.90 1.97L23.90 1.97L23.90 1.97Q24.12 1.62 24.54 1.39L24.54 1.39L24.54 1.39Q24.95 1.16 25.70 1.16L25.70 1.16L25.70 1.16Q26.05 1.16 26.43 1.23L26.43 1.23L26.43 1.23Q26.80 1.30 27.06 1.43L27.06 1.43L27.06 1.43Q27.16 1.48 27.16 1.62L27.16 1.62L27.10 2.58L27.10 2.58Q27.10 2.81 26.98 2.79ZM33.98 2.79L33.98 2.79L33.98 2.79Q33.78 2.69 33.49 2.61L33.49 2.61L33.49 2.61Q33.19 2.53 32.84 2.53L32.84 2.53L32.84 2.53Q32.47 2.52 32.28 2.70L32.28 2.70L32.28 2.70Q32.09 2.88 32.03 3.15L32.03 3.15L32.03 3.15Q32.00 3.32 31.98 3.54L31.98 3.54L31.98 3.54Q31.96 3.77 31.96 4.06L31.96 4.06L31.96 5.03L34.12 5.03L34.12 5.03Q34.29 5.03 34.29 5.19L34.29 5.19L34.29 6.29L34.29 6.29Q34.29 6.36 34.24 6.41L34.24 6.41L34.24 6.41Q34.19 6.45 34.12 6.45L34.12 6.45L31.96 6.45L31.96 11.73L31.96 11.73Q31.96 11.90 31.79 11.90L31.79 11.90L30.65 11.90L30.65 11.90Q30.48 11.90 30.48 11.73L30.48 11.73L30.48 6.45L28.91 6.45L28.91 6.45Q28.84 6.45 28.79 6.41L28.79 6.41L28.79 6.41Q28.74 6.36 28.74 6.29L28.74 6.29L28.74 5.19L28.74 5.19Q28.74 5.12 28.79 5.08L28.79 5.08L28.79 5.08Q28.84 5.03 28.91 5.03L28.91 5.03L30.46 5.03L30.46 4.16L30.46 4.16Q30.46 3.49 30.55 2.94L30.55 2.94L30.55 2.94Q30.65 2.39 30.90 1.97L30.90 1.97L30.90 1.97Q31.12 1.62 31.54 1.39L31.54 1.39L31.54 1.39Q31.95 1.16 32.70 1.16L32.70 1.16L32.70 1.16Q33.05 1.16 33.42 1.23L33.42 1.23L33.42 1.23Q33.80 1.30 34.06 1.43L34.06 1.43L34.06 1.43Q34.16 1.48 34.16 1.62L34.16 1.62L34.10 2.58L34.10 2.58Q34.10 2.81 33.98 2.79ZM41.12 11.90L35.98 11.90L35.98 11.90Q35.91 11.90 35.86 11.85L35.86 11.85L35.86 11.85Q35.81 11.80 35.81 11.72L35.81 11.72L35.81 10.63L35.81 10.63Q35.81 10.56 35.86 10.51L35.86 10.51L35.86 10.51Q35.91 10.46 35.98 10.46L35.98 10.46L37.88 10.46L37.88 2.83L36.43 2.83L36.43 2.83Q36.36 2.83 36.31 2.78L36.31 2.78L36.31 2.78Q36.26 2.73 36.26 2.65L36.26 2.65L36.26 1.55L36.26 1.55Q36.26 1.48 36.31 1.44L36.31 1.44L36.31 1.44Q36.36 1.39 36.43 1.39L36.43 1.39L39.23 1.39L39.23 1.39Q39.30 1.39 39.35 1.44L39.35 1.44L39.35 1.44Q39.40 1.48 39.40 1.55L39.40 1.55L39.40 10.46L41.12 10.46L41.12 10.46Q41.19 10.46 41.24 10.51L41.24 10.51L41.24 10.51Q41.29 10.56 41.29 10.63L41.29 10.63L41.29 11.72L41.29 11.72Q41.29 11.90 41.12 11.90L41.12 11.90ZM48.29 8.72L48.29 8.72L48.29 8.72Q48.29 8.83 48.24 8.88L48.24 8.88L48.24 8.88Q48.19 8.93 48.10 8.93L48.10 8.93L44.27 8.93L44.27 8.93Q44.28 9.67 44.65 10.20L44.65 10.20L44.65 10.20Q45.02 10.72 45.85 10.72L45.85 10.72L45.85 10.72Q46.35 10.72 46.74 10.61L46.74 10.61L46.74 10.61Q47.12 10.49 47.53 10.19L47.53 10.19L47.53 10.19Q47.64 10.14 47.66 10.21L47.66 10.21L47.66 10.21Q47.68 10.28 47.68 10.37L47.68 10.37L47.68 11.37L47.68 11.37Q47.68 11.49 47.64 11.56L47.64 11.56L47.64 11.56Q47.60 11.62 47.50 11.69L47.50 11.69L47.50 11.69Q47.14 11.89 46.77 12.00L46.77 12.00L46.77 12.00Q46.40 12.11 45.85 12.11L45.85 12.11L45.85 12.11Q44.25 12.11 43.47 11.09L43.47 11.09L43.47 11.09Q42.69 10.07 42.69 8.39L42.69 8.39L42.69 8.39Q42.69 7.67 42.85 6.99L42.85 6.99L42.85 6.99Q43.02 6.31 43.38 5.77L43.38 5.77L43.38 5.77Q43.74 5.22 44.28 4.87L44.28 4.87L44.28 4.87Q44.83 4.52 45.54 4.52L45.54 4.52L45.54 4.52Q46.30 4.52 46.82 4.84L46.82 4.84L46.82 4.84Q47.35 5.17 47.68 5.69L47.68 5.69L47.68 5.69Q48.01 6.22 48.15 6.89L48.15 6.89L48.15 6.89Q48.30 7.56 48.30 8.34L48.30 8.34L48.30 8.34Q48.30 8.44 48.29 8.56L48.29 8.56L48.29 8.56Q48.29 8.68 48.29 8.72ZM45.51 5.87L45.51 5.87L45.51 5.87Q45.18 5.87 44.92 6.06L44.92 6.06L44.92 6.06Q44.66 6.24 44.51 6.56L44.51 6.56L44.51 6.56Q44.37 6.87 44.32 7.13L44.32 7.13L44.32 7.13Q44.27 7.39 44.27 7.55L44.27 7.55L46.77 7.55L46.77 7.55Q46.77 7.39 46.73 7.13L46.73 7.13L46.73 7.13Q46.68 6.87 46.53 6.56L46.53 6.56L46.53 6.56Q46.38 6.24 46.12 6.06L46.12 6.06L46.12 6.06Q45.85 5.87 45.51 5.87Z"></path></g><linearGradient data-v-d3f97b9e="" gradientTransform="rotate(25)" id="30c29011-a081-4741-b6bb-e06d8873e7b7" x1="0%" y1="0%" x2="100%" y2="0%"><stop data-v-d3f97b9e="" offset="0%" style="stop-color: rgb(169, 37, 128); stop-opacity: 1;"></stop><stop data-v-d3f97b9e="" offset="100%" style="stop-color: rgb(247, 188, 0); stop-opacity: 1;"></stop></linearGradient><g data-v-d3f97b9e="" id="1085c47b-b6bc-4e6d-b1f9-4301cfb34be7" transform="matrix(1.1414221157695137,0,0,1.1414221157695137,-10.343879888974278,-11.465698853151771)" stroke="none" fill="url(#30c29011-a081-4741-b6bb-e06d8873e7b7)"><switch><g><path d="M89.141 35.617C86.25 22.852 77.844 14.405 68.699 10.364c11.371 10.018 21.846 29.405 8.814 47.069-5.406 7.331-16.217 10.228-20.746 8.184 0 0 7.002-1.487 11.357-5.295 8.469-8.017 11.299-20.932 4.52-32.673a25.839 25.839 0 0 0-3.357-4.575c-.018-.021-.033-.042-.051-.062-4.764-5.683-11.307-9.075-18.337-10.116-9.127-1.715-20.896.515-29.71 8.666C11.58 30.45 8.468 41.953 9.542 51.895c2.989-14.858 14.542-33.622 36.355-31.171 9.053 1.019 16.965 8.932 17.461 13.877 0 0-5.277-8.281-18.365-8.281-.24.004-.747.024-.761.024l-.167.01c-8.51.333-16.783 4.784-21.83 13.526a25.819 25.819 0 0 0-2.284 5.195l-.028.074c-2.539 6.968-2.205 14.33.407 20.938 3.079 8.763 10.896 17.841 22.361 21.397 12.502 3.878 24.02.82 32.092-5.079-14.363 4.837-36.389 4.216-45.173-15.899-3.645-8.35-.749-19.159 3.287-22.061 0 0-4.534 8.71 2.012 20.044 4.482 7.484 12.617 12.658 22.949 12.658.498 0 4.488-.311 5.926-.633l.08-.011c7.303-1.286 13.512-5.256 17.928-10.822 6.05-7.046 10.003-18.356 7.349-30.064z"></path></g></switch></g><!----></svg>