<svg width="45" height="56" viewBox="0 0 45 56" fill="none" xmlns="http://www.w3.org/2000/svg">
<path d="M11.866 31.366L22.2583 37.366L13.3454 52.8036L11.2901 46.9667C10.9625 46.0363 10.0053 45.4837 9.03569 45.6651L2.95314 46.8036L11.866 31.366Z" stroke="#2BC07E" stroke-width="2"/>
<path d="M33.759 31.366L23.3667 37.366L32.2796 52.8036L34.3349 46.9667C34.6625 46.0363 35.6197 45.4837 36.5893 45.6651L42.6719 46.8036L33.759 31.366Z" stroke="#2BC07E" stroke-width="2"/>
<path d="M18.6381 6.27038C20.6383 3.8382 24.3617 3.8382 26.3619 6.27038L26.7961 6.79841C28.1024 8.38685 30.0411 9.32049 32.0974 9.35141L32.781 9.36168C35.9296 9.40902 38.2511 12.3201 37.5966 15.4003L37.4546 16.069C37.0271 18.0807 37.5059 20.1786 38.7639 21.8056L39.182 22.3464C41.1082 24.8376 40.2796 28.4677 37.4634 29.8765L36.852 30.1823C35.0127 31.1024 33.671 32.7847 33.1833 34.7826L33.0212 35.4468C32.2744 38.5059 28.9197 40.1215 26.0624 38.798L25.442 38.5106C23.5759 37.6463 21.4241 37.6463 19.558 38.5106L18.9376 38.798C16.0803 40.1215 12.7256 38.5059 11.9788 35.4468L11.8167 34.7826C11.329 32.7847 9.98734 31.1024 8.14805 30.1823L7.53663 29.8765C4.72036 28.4677 3.89182 24.8376 5.81795 22.3464L6.23611 21.8056C7.49405 20.1786 7.97288 18.0807 7.54544 16.069L7.40335 15.4003C6.74887 12.3201 9.07037 9.40902 12.219 9.36168L12.9026 9.35141C14.9589 9.32049 16.8976 8.38685 18.2039 6.79841L17.4316 6.16323L18.2039 6.79841L18.6381 6.27038Z" fill="#2F2F2F" stroke="#2BC07E" stroke-width="2"/>
<path d="M30.5 18.5L21 28L16 23" stroke="#2BC07E" stroke-width="2" stroke-linecap="round" stroke-linejoin="round"/>
</svg>
