<svg width="54" height="52" viewBox="0 0 54 52" fill="none" xmlns="http://www.w3.org/2000/svg">
<path d="M37.9999 31.4723C38.007 34.1853 37.3731 36.8617 36.1499 39.2834C34.6996 42.1853 32.47 44.6261 29.7108 46.3324C26.9517 48.0387 23.7719 48.9432 20.5277 48.9444C17.9537 48.9512 15.4126 48.3809 13.0908 47.2778C12.8499 47.1634 12.5744 47.1419 12.3214 47.2262L2.89737 50.3675C2.11561 50.6281 1.37187 49.8844 1.63246 49.1026L4.77381 39.6786C4.85812 39.4256 4.83665 39.1501 4.72223 38.9092C3.6191 36.5874 3.04884 34.0463 3.05555 31.4723C3.05681 28.2281 3.96125 25.0483 5.66758 22.2892C7.37391 19.53 9.81473 17.3004 12.7166 15.8501C15.1383 14.6269 17.8147 13.993 20.5277 14.0001H21.5555C25.84 14.2364 29.8868 16.0448 32.921 19.079C35.9552 22.1132 37.7636 26.16 37.9999 30.4445V31.4723Z" stroke="#4FB1E8" stroke-width="2" stroke-linecap="round" stroke-linejoin="round"/>
<path d="M39 32L38.0926 33.7823C38.6627 34.0726 39.3373 34.0726 39.9074 33.7823L39 32ZM39 32C39.9074 33.7823 39.9079 33.782 39.9085 33.7817L39.91 33.781L39.9136 33.7791L39.9239 33.7739L39.9562 33.7571C39.9829 33.7432 40.0199 33.7237 40.0664 33.6989C40.1593 33.6492 40.2906 33.5778 40.4547 33.4853C40.7826 33.3004 41.2432 33.0306 41.7925 32.6811C42.8869 31.9846 44.3541 30.9586 45.8304 29.6433C48.7043 27.083 52 23.078 52 18V8.2C52 7.37067 51.4882 6.62739 50.7134 6.33156L39.7134 2.13156C39.254 1.95615 38.746 1.95615 38.2866 2.13156L27.2866 6.33156C26.5118 6.62739 26 7.37067 26 8.2V18C26 23.078 29.2957 27.083 32.1696 29.6433C33.6459 30.9586 35.1131 31.9846 36.2075 32.6811C36.7568 33.0306 37.2174 33.3004 37.5453 33.4853C37.7094 33.5778 37.8407 33.6492 37.9336 33.6989C37.9801 33.7237 38.0171 33.7432 38.0438 33.7571L38.0761 33.7739L38.0864 33.7791L38.09 33.781L38.0915 33.7817C38.0921 33.782 38.0926 33.7823 39 32Z" fill="#2F2F2F" stroke="#2F2F2F" stroke-width="4" stroke-linecap="round" stroke-linejoin="round"/>
<path d="M40.1819 30.1501C39.6936 30.4608 39.2864 30.6997 39 30.8615C38.7136 30.6997 38.3064 30.4608 37.8181 30.1501C36.8185 29.5139 35.4896 28.5832 34.1652 27.4033C31.4771 25.0085 29 21.761 29 18V8.8886L39 5.07041L49 8.8886V18C49 21.761 46.5229 25.0085 43.8348 27.4033C42.5104 28.5832 41.1815 29.5139 40.1819 30.1501Z" stroke="#4FB1E8" stroke-width="2" stroke-linecap="round" stroke-linejoin="round"/>
</svg>
