<svg width="48" height="48" viewBox="0 0 48 48" fill="none" xmlns="http://www.w3.org/2000/svg">
<path d="M19.2326 41.4787H19.2326L19.2326 41.47C19.2313 40.1671 19.6607 38.9 20.4546 37.865C21.2485 36.8301 22.3625 36.0851 23.6242 35.7458C24.8858 35.4065 26.2244 35.4919 27.4325 35.9887C28.6405 36.4855 29.6503 37.3659 30.3056 38.4931L30.5302 38.8796L30.9393 38.6995C33.4578 37.591 35.237 36.1436 36.3734 34.1074C37.5026 32.084 37.9652 29.5351 37.9652 26.2827V19.274C37.9652 14.5199 36.6216 10.455 34.1879 7.56945C31.7474 4.6759 28.2394 3.00436 24.0012 3.00436C19.7629 3.00436 16.2549 4.67653 13.8145 7.57034C11.3808 10.4561 10.0371 14.521 10.0371 19.274V27.4501C10.0367 27.7819 9.90438 28.1002 9.66889 28.3351C9.43337 28.5701 9.11382 28.7025 8.78025 28.703H6.43988C4.86506 28.7013 3.35543 28.0765 2.242 26.966C1.1287 25.8556 0.502381 24.3503 0.5 22.7803V20.4447C0.501784 18.874 1.12781 17.3678 2.24116 16.2566C3.35447 15.1454 4.86421 14.5199 6.43943 14.5174C6.43964 14.5174 6.43985 14.5174 6.44006 14.5174L7.55861 14.5174H7.96354L8.04769 14.1213C9.77814 5.97693 15.6661 0.5 24.0012 0.5C32.3361 0.5 38.2218 5.97684 39.9523 14.1213L40.0365 14.5174H40.4414L41.5599 14.5174C41.5602 14.5174 41.5604 14.5174 41.5606 14.5174C43.1354 14.5199 44.6448 15.1451 45.7581 16.2558C46.8714 17.3667 47.4977 18.8724 47.5 20.4428V22.7778C47.4983 24.3483 46.8722 25.8543 45.7588 26.9652C44.6453 28.0762 43.1353 28.7013 41.5601 28.703H40.8371H40.3532L40.3374 29.1866C40.2503 31.8522 39.354 34.4287 37.7668 36.5749C36.1796 38.7212 33.9764 40.3361 31.4486 41.2057L31.1171 41.3197L31.1114 41.6704C31.0859 43.2413 30.436 44.7381 29.3042 45.8313C28.1724 46.9246 26.6514 47.5247 25.0758 47.4992C23.5002 47.4738 21.9995 46.8249 20.9038 45.6957C19.8081 44.5666 19.2071 43.0496 19.2326 41.4787ZM21.745 41.4701V41.4705C21.745 42.1473 21.9461 42.8087 22.3228 43.3712C22.6995 43.9337 23.2348 44.3719 23.8609 44.6306C24.4869 44.8894 25.1758 44.9571 25.8403 44.8252C26.5049 44.6933 27.1154 44.3677 27.5948 43.8895C28.0741 43.4112 28.4007 42.8017 28.533 42.138C28.6654 41.4743 28.5974 40.7864 28.3379 40.1613C28.0784 39.5362 27.639 39.0021 27.0754 38.6264C26.5119 38.2507 25.8495 38.0502 25.172 38.0502H25.1716C24.2634 38.051 23.3923 38.4112 22.7498 39.0523C22.1072 39.6934 21.7457 40.563 21.745 41.4701ZM40.4776 25.7009V26.2009H40.9776H41.5607C42.4693 26.2009 43.341 25.841 43.9842 25.1999C44.6273 24.5587 44.9892 23.6887 44.99 22.781V22.7806V20.4444C44.99 19.5368 44.6288 18.6665 43.9861 18.0248C43.3435 17.3831 42.4721 17.0225 41.5634 17.0218H41.563H40.9776H40.4776V17.5218V25.7009ZM3.01237 22.7806L3.01237 22.7815C3.01382 23.6881 3.37566 24.557 4.01816 25.1975L4.37117 24.8434L4.01816 25.1975C4.66062 25.838 5.53122 26.1979 6.43894 26.1986H6.43934H7.02473H7.52473V25.6986V17.5218V17.0218H7.02473H6.43934H6.43894C5.53027 17.0225 4.65884 17.3831 4.01622 18.0248C3.37357 18.6665 3.01237 19.5368 3.01237 20.4444L3.01237 22.7806Z" fill="#FF8544" stroke="#2F2F2F"/>
</svg>
