<svg width="65" height="45" viewBox="0 0 65 45" fill="none" xmlns="http://www.w3.org/2000/svg">
<path d="M28.5445 38.9971V36.0579C28.5445 34.4989 27.9252 33.0037 26.8228 31.9013C25.7204 30.7989 24.2253 30.1796 22.6662 30.1796H10.9096C9.35055 30.1796 7.85537 30.7989 6.75297 31.9013C5.65057 33.0037 5.03125 34.4989 5.03125 36.0579V38.9971" stroke="#806BFF" stroke-width="2" stroke-linecap="round" stroke-linejoin="round"/>
<path d="M16.7885 25.8205C20.035 25.8205 22.6668 23.1887 22.6668 19.9422C22.6668 16.6957 20.035 14.0638 16.7885 14.0638C13.542 14.0638 10.9102 16.6957 10.9102 19.9422C10.9102 23.1887 13.542 25.8205 16.7885 25.8205Z" stroke="#806BFF" stroke-width="2" stroke-linecap="round" stroke-linejoin="round"/>
<path d="M1 43.9362H32.575" stroke="#806BFF" stroke-width="2" stroke-linecap="round"/>
<path d="M16.5742 8.16418V5C16.5742 2.79086 18.3651 1 20.5742 1H59.5742C61.7834 1 63.5742 2.79086 63.5742 5V29C63.5742 31.2091 61.7834 33 59.5742 33H33.3907" stroke="#806BFF" stroke-width="2" stroke-linecap="round"/>
</svg>
