<svg width="22" height="16" viewBox="0 0 22 16" fill="none" xmlns="http://www.w3.org/2000/svg">
<path d="M8.9263 14.5851V13.0757C8.9263 12.275 9.24436 11.5071 9.81052 10.941C10.3767 10.3748 11.1445 10.0568 11.9452 10.0568H17.983C18.7837 10.0568 19.5516 10.3748 20.1177 10.941C20.6839 11.5071 21.002 12.275 21.002 13.0757V14.5851" stroke="#9E9E9E" stroke-linecap="round" stroke-linejoin="round"/>
<path d="M14.9635 7.03783C13.2962 7.03783 11.9446 5.68621 11.9446 4.01891C11.9446 2.35161 13.2962 1 14.9635 1C16.6308 1 17.9824 2.35161 17.9824 4.01891C17.9824 5.68621 16.6308 7.03783 14.9635 7.03783Z" stroke="#9E9E9E" stroke-linecap="round" stroke-linejoin="round"/>
<path d="M0.99923 12.887V11.6292C0.99923 10.9619 1.26428 10.3221 1.73608 9.85025C2.20788 9.37846 2.84777 9.1134 3.51499 9.1134L7.98047 9.1134" stroke="#9E9E9E" stroke-linecap="round" stroke-linejoin="round"/>
<path d="M6.03111 6.59763C4.6417 6.59763 3.51535 5.47128 3.51535 4.08186C3.51535 2.69245 4.6417 1.5661 6.03111 1.5661C7.42053 1.5661 8.54688 2.69245 8.54688 4.08186C8.54688 5.47128 7.42053 6.59763 6.03111 6.59763Z" stroke="#9E9E9E" stroke-linecap="round" stroke-linejoin="round"/>
</svg>
