<svg width="66" height="28" viewBox="0 0 66 28" fill="none" xmlns="http://www.w3.org/2000/svg">
<path d="M6.25391 27.1562C5.13411 27.0521 3.82552 27 2.32812 27H0.785156L9.28125 3.19141C9.65885 2.1237 9.84766 1.50521 9.84766 1.33594C9.84766 1.15365 9.84115 1.04297 9.82812 1.00391L9.84766 0.964844C10.694 1.00391 11.5924 1.02344 12.543 1.02344C13.3242 1.02344 14.2617 1.01042 15.3555 0.984375L15.375 1.02344C15.349 1.07552 15.3359 1.14714 15.3359 1.23828C15.3359 1.48568 15.5312 2.14323 15.9219 3.21094L24.5938 27.0586C24.3333 27.0456 24.0273 27.0391 23.6758 27.0391C23.6758 27.0391 23.3372 27.026 22.6602 27C22.3346 27 22.0417 27 21.7812 27H18.7539L16.918 21.375H8.08984L6.25391 27.1562ZM15.3945 16.6875L12.4453 7.60547L9.57422 16.6875H15.3945ZM27.3867 0.886719C29.1966 0.652344 31.0521 0.535156 32.9531 0.535156C36.4948 0.535156 39.1836 1.36849 41.0195 3.03516C42.8685 4.6888 43.793 7.16927 43.793 10.4766C43.793 13.4323 42.7839 15.7695 40.7656 17.4883C38.8776 19.1029 36.4492 19.9102 33.4805 19.9102C33.1419 19.9102 32.7708 19.8906 32.3672 19.8516V27H27.3867V0.886719ZM33.5391 5.24219C33.1484 5.24219 32.7578 5.25521 32.3672 5.28125V15.5547C32.7839 15.6068 33.2917 15.6328 33.8906 15.6328C34.4896 15.6328 35.1146 15.5091 35.7656 15.2617C36.4167 15.0013 36.9635 14.6432 37.4062 14.1875C38.3307 13.237 38.793 11.987 38.793 10.4375C38.793 6.97396 37.0417 5.24219 33.5391 5.24219ZM48.4023 0.945312C49.7044 0.997396 50.4922 1.02344 50.7656 1.02344H52.1719C52.862 1.02344 53.4154 0.971354 53.832 0.867188L53.8125 27H48.4023V0.945312ZM59.9258 27C60.043 26.2057 60.1016 25.5026 60.1016 24.8906C60.1016 24.2786 60.0951 23.862 60.082 23.6406C60.082 23.4062 60.0755 23.1784 60.0625 22.957C60.0495 22.7357 60.0365 22.5273 60.0234 22.332L59.9648 21.8438H65.6289C65.5898 22.3385 65.5703 22.7422 65.5703 23.0547L65.5312 23.875C65.5312 24.1224 65.5312 24.5911 65.5312 25.2812C65.5312 25.9583 65.5638 26.5312 65.6289 27H59.9258Z" fill="#2BC07E"/>
</svg>
