<svg width="18" height="18" viewBox="0 0 18 18" fill="none" xmlns="http://www.w3.org/2000/svg">
<path d="M17.502 8.50003L17.502 8.50133C17.5052 9.74245 17.2152 10.9668 16.6557 12.0746L16.6547 12.0765C15.9906 13.4052 14.9698 14.5228 13.7064 15.3041C12.4431 16.0853 10.9872 16.4995 9.50176 16.5L9.50065 16.5C8.25953 16.5033 7.0352 16.2133 5.92738 15.6537C5.80838 15.5936 5.67031 15.5835 5.54384 15.6257L0.792523 17.2095L2.37629 12.4581C2.41845 12.3317 2.40836 12.1936 2.34825 12.0746C1.78869 10.9668 1.49872 9.74245 1.50195 8.50133L1.50195 8.50022C1.50253 7.01482 1.91665 5.55891 2.69792 4.29556C3.4792 3.03222 4.59678 2.01134 5.92548 1.34728L5.92548 1.34728L5.92738 1.34633C7.0352 0.786764 8.25953 0.496791 9.50065 0.500028H9.50195H9.98796C11.9444 0.611298 13.7917 1.43858 15.1775 2.82444C16.5634 4.21031 17.3907 6.05759 17.502 8.01402L17.502 8.50003Z" stroke="#FF8544" stroke-linecap="round" stroke-linejoin="round"/>
</svg>
