<svg width="20" height="20" viewBox="0 0 20 20" fill="none" xmlns="http://www.w3.org/2000/svg">
<path d="M10.002 19C14.9725 19 19.002 14.9706 19.002 10C19.002 5.02944 14.9725 1 10.002 1C5.03139 1 1.00195 5.02944 1.00195 10C1.00195 14.9706 5.03139 19 10.002 19Z" stroke="#FF8544" stroke-linecap="round" stroke-linejoin="round"/>
<path d="M7.38281 7.3C7.59441 6.6985 8.01205 6.1913 8.56177 5.86822C9.11149 5.54514 9.75782 5.42704 10.3863 5.53484C11.0147 5.64264 11.5847 5.96937 11.9954 6.45718C12.406 6.94498 12.6308 7.56237 12.6298 8.2C12.6298 10 9.92981 10.9 9.92981 10.9" stroke="#FF8544" stroke-linecap="round" stroke-linejoin="round"/>
<path d="M10.002 14.5H10.011" stroke="#FF8544" stroke-linecap="round" stroke-linejoin="round"/>
</svg>
