<svg width="56" height="56" viewBox="0 0 56 56" fill="none" xmlns="http://www.w3.org/2000/svg">
<rect width="56" height="56" rx="4" fill="#2F2F2F"/>
<g clip-path="url(#clip0_3970_2549)">
<path fill-rule="evenodd" clip-rule="evenodd" d="M28 12C19.16 12 12 19.16 12 28C12 35.08 16.58 41.06 22.94 43.18C23.74 43.32 24.04 42.84 24.04 42.42C24.04 42.04 24.02 40.78 24.02 39.44C20 40.18 18.96 38.46 18.64 37.56C18.46 37.1 17.68 35.68 17 35.3C16.44 35 15.64 34.26 16.98 34.24C18.24 34.22 19.14 35.4 19.44 35.88C20.88 38.3 23.18 37.62 24.1 37.2C24.24 36.16 24.66 35.46 25.12 35.06C21.56 34.66 17.84 33.28 17.84 27.16C17.84 25.42 18.46 23.98 19.48 22.86C19.32 22.46 18.76 20.82 19.64 18.62C19.64 18.62 20.98 18.2 24.04 20.26C25.32 19.9 26.68 19.72 28.04 19.72C29.4 19.72 30.76 19.9 32.04 20.26C35.1 18.18 36.44 18.62 36.44 18.62C37.32 20.82 36.76 22.46 36.6 22.86C37.62 23.98 38.24 25.4 38.24 27.16C38.24 33.3 34.5 34.66 30.94 35.06C31.52 35.56 32.02 36.52 32.02 38.02C32.02 40.16 32 41.88 32 42.42C32 42.84 32.3 43.34 33.1 43.18C39.42 41.06 44 35.06 44 28C44 19.16 36.84 12 28 12Z" fill="white"/>
</g>
<defs>
<clipPath id="clip0_3970_2549">
<rect width="32" height="32" fill="white" transform="translate(12 12)"/>
</clipPath>
</defs>
</svg>
