<svg width="24" height="24" viewBox="0 0 24 24" fill="none" xmlns="http://www.w3.org/2000/svg">
<g clip-path="url(#clip0_4467_7657)">
<path d="M6.54065 20.7133C6.54065 18.9072 5.07648 17.443 3.27033 17.443C1.46417 17.443 0 18.9072 0 20.7133C0 22.5195 1.46417 23.9837 3.27033 23.9837C5.07648 23.9837 6.54065 22.5195 6.54065 20.7133Z" fill="#17BCAF"/>
<path d="M23.9838 16.3516C23.9838 16.7226 23.958 17.0851 23.9062 17.441C23.3841 21.0997 20.2648 23.9213 16.4767 23.9817C16.4358 23.9817 16.3948 23.9817 16.3538 23.9817H11.994C10.1884 23.9817 8.72378 22.5169 8.72378 20.7113C8.72378 19.8075 9.09048 18.9921 9.68154 18.3988C10.2748 17.8056 11.0902 17.441 11.994 17.441H16.3171C16.8974 17.441 17.4043 17.0031 17.4432 16.4228C17.4841 15.808 17.0118 15.2924 16.4121 15.2622C16.3948 15.2622 16.3754 15.2622 16.3559 15.2622H7.63439C3.78805 15.2622 0.606175 12.419 0.0798164 8.72161C0.0258865 8.36564 0 8.00109 0 7.63222C0 7.26331 0.0258865 6.89875 0.0776594 6.5428C0.60186 2.88203 3.72118 0.062559 7.50708 0C7.54807 0 7.58907 0 7.63006 0H11.9897C13.7975 0 15.2622 1.46475 15.2622 3.27033C15.2622 4.1742 14.8955 4.98961 14.3044 5.58285C13.7112 6.17608 12.8958 6.54065 11.9919 6.54065H7.66889C7.08858 6.54065 6.58163 6.97856 6.5428 7.55888C6.50182 8.17364 6.97424 8.68919 7.57394 8.71945C7.59123 8.71945 7.61061 8.71945 7.63006 8.71945H16.3516C20.1958 8.71945 23.3755 11.5626 23.904 15.26C23.9558 15.616 23.9817 15.9806 23.9817 16.3494L23.9838 16.3516Z" fill="#18FFCD"/>
<path d="M23.984 3.27033C23.984 1.46417 22.5199 0 20.7137 0C18.9076 0 17.4434 1.46417 17.4434 3.27033C17.4434 5.07648 18.9076 6.54065 20.7137 6.54065C22.5199 6.54065 23.984 5.07648 23.984 3.27033Z" fill="#17BCAF"/>
<path d="M20.6855 19.622C20.6855 21.9884 18.8002 23.917 16.4488 23.9817C16.4078 23.9817 16.3669 23.9817 16.3259 23.9817H11.9661C10.1605 23.9817 8.6958 22.517 8.6958 20.7114C8.6958 19.8075 9.06251 18.9921 9.65357 18.3989C10.2469 17.8057 11.0623 17.441 11.9661 17.441H16.2892C16.8694 17.441 17.3764 17.0031 17.4153 16.4229C17.4562 15.8081 16.9838 15.2925 16.3841 15.2623C18.7657 15.2904 20.6898 17.2318 20.6898 19.622H20.6855Z" fill="url(#paint0_linear_4467_7657)"/>
<path d="M3.27237 4.35971C3.27237 1.99326 5.15778 0.0668734 7.50916 0C7.55015 0 7.59107 0 7.63206 0H11.9918C13.7974 0 15.2621 1.46475 15.2621 3.27032C15.2621 4.1742 14.8954 4.98961 14.3044 5.58285C13.7111 6.17608 12.8957 6.54065 11.9918 6.54065H7.66874C7.08847 6.54065 6.58154 6.97856 6.5427 7.55888C6.50172 8.17364 6.97414 8.68919 7.57385 8.71945C5.19229 8.69135 3.26807 6.7499 3.26807 4.35971H3.27237Z" fill="url(#paint1_linear_4467_7657)"/>
</g>
<defs>
<linearGradient id="paint0_linear_4467_7657" x1="8.72017" y1="15.2623" x2="20.7103" y2="15.2623" gradientUnits="userSpaceOnUse">
<stop stop-color="#18C2B0"/>
<stop offset="1" stop-color="#0B5C53"/>
</linearGradient>
<linearGradient id="paint1_linear_4467_7657" x1="15.2601" y1="0" x2="3.26995" y2="0" gradientUnits="userSpaceOnUse">
<stop stop-color="#18C2B0"/>
<stop offset="1" stop-color="#0B5C53"/>
</linearGradient>
<clipPath id="clip0_4467_7657">
<rect width="24" height="24" fill="white"/>
</clipPath>
</defs>
</svg>
