<svg width="24" height="24" viewBox="0 0 24 24" fill="none" xmlns="http://www.w3.org/2000/svg">
<path d="M5 7.20001H6.6H19.4" stroke="#FD4C62" stroke-linecap="round" stroke-linejoin="round"/>
<path d="M17.7996 7.2V18.4C17.7996 18.8243 17.631 19.2313 17.331 19.5314C17.0309 19.8314 16.624 20 16.1996 20H8.19961C7.77526 20 7.3683 19.8314 7.06824 19.5314C6.76818 19.2313 6.59961 18.8243 6.59961 18.4V7.2M8.99961 7.2V5.6C8.99961 5.17565 9.16818 4.76869 9.46824 4.46863C9.7683 4.16857 10.1753 4 10.5996 4H13.7996C14.224 4 14.6309 4.16857 14.931 4.46863C15.231 4.76869 15.3996 5.17565 15.3996 5.6V7.2" stroke="#FD4C62" stroke-linecap="round" stroke-linejoin="round"/>
</svg>
