<svg width="16" height="11" viewBox="0 0 16 11" fill="none" xmlns="http://www.w3.org/2000/svg">
<path d="M7.99984 6.83329C8.73622 6.83329 9.33317 6.23634 9.33317 5.49996C9.33317 4.76358 8.73622 4.16663 7.99984 4.16663C7.26346 4.16663 6.6665 4.76358 6.6665 5.49996C6.6665 6.23634 7.26346 6.83329 7.99984 6.83329Z" stroke="#C8C8C8" stroke-width="1.5" stroke-linecap="round" stroke-linejoin="round"/>
<path d="M10.8269 2.67329C11.1988 3.04478 11.4938 3.48593 11.6951 3.97153C11.8964 4.45712 12 4.97763 12 5.50329C12 6.02895 11.8964 6.54946 11.6951 7.03505C11.4938 7.52064 11.1988 7.9618 10.8269 8.33329M5.17354 8.32662C4.80163 7.95513 4.5066 7.51398 4.3053 7.02838C4.104 6.54279 4.00039 6.02228 4.00039 5.49662C4.00039 4.97096 4.104 4.45045 4.3053 3.96486C4.5066 3.47927 4.80163 3.03811 5.17354 2.66662M12.7135 0.786621C13.9633 2.03681 14.6654 3.73219 14.6654 5.49995C14.6654 7.26772 13.9633 8.9631 12.7135 10.2133M3.28687 10.2133C2.03706 8.9631 1.33496 7.26772 1.33496 5.49995C1.33496 3.73219 2.03706 2.03681 3.28687 0.786621" stroke="#C8C8C8" stroke-width="1.5" stroke-linecap="round" stroke-linejoin="round"/>
</svg>
