<svg width="24" height="24" viewBox="0 0 24 24" fill="none" xmlns="http://www.w3.org/2000/svg">
<rect width="24" height="24" fill="#212121" fill-opacity="0.02"/>
<path d="M8.22559 16.4467L11.7788 20L15.3321 16.4467" stroke="#F1F1F1" stroke-linecap="round" stroke-linejoin="round"/>
<path d="M11.7793 12.0052V20" stroke="#F1F1F1" stroke-linecap="round" stroke-linejoin="round"/>
<path d="M19.6676 17.415C20.4399 16.8719 21.019 16.0968 21.321 15.2023C21.6229 14.3078 21.632 13.3403 21.3468 12.4403C21.0617 11.5402 20.4971 10.7545 19.7352 10.197C18.9732 9.6396 18.0534 9.33948 17.1092 9.34021H15.99C15.7228 8.299 15.2229 7.33196 14.5279 6.5119C13.8329 5.69184 12.961 5.04013 11.9777 4.60583C10.9944 4.17153 9.92534 3.96596 8.85109 4.00459C7.77684 4.04322 6.72535 4.32505 5.77578 4.82886C4.82621 5.33267 4.00331 6.04534 3.36902 6.9132C2.73474 7.78106 2.30559 8.78151 2.11391 9.83922C1.92222 10.8969 1.97297 11.9844 2.26236 13.0196C2.55174 14.0549 3.07221 15.011 3.78459 15.816" stroke="#F1F1F1" stroke-linecap="round" stroke-linejoin="round"/>
</svg>
