<svg width="280" height="408" viewBox="0 0 280 408" fill="none" xmlns="http://www.w3.org/2000/svg">
<rect width="280" height="408" rx="8" fill="#2F2F2F"/>
<path d="M101 177H280V400C280 404.418 276.418 408 272 408H101V177Z" fill="url(#paint0_linear_5887_2871)" fill-opacity="0.8"/>
<rect x="24" y="24" width="136" height="10" rx="5" fill="#494949"/>
<rect x="24" y="48" width="52" height="29" rx="2" fill="#494949"/>
<rect x="24" y="85" width="52" height="29" rx="2" fill="url(#paint1_linear_5887_2871)"/>
<rect x="84" y="48" width="52" height="29" rx="2" fill="#494949"/>
<rect x="84" y="85" width="52" height="29" rx="2" fill="url(#paint2_linear_5887_2871)"/>
<rect x="144" y="48" width="52" height="29" rx="2" fill="#494949"/>
<rect x="144" y="85" width="52" height="29" rx="2" fill="url(#paint3_linear_5887_2871)"/>
<rect x="204" y="48" width="52" height="29" rx="2" fill="#494949"/>
<rect x="204" y="85" width="52" height="29" rx="2" fill="url(#paint4_linear_5887_2871)"/>
<rect x="172" y="24" width="84" height="10" rx="5" fill="#FF8544"/>
<rect x="154" y="384" width="84" height="10" rx="5" fill="url(#paint5_linear_5887_2871)"/>
<circle cx="40" cy="126" r="15.5" stroke="#494949"/>
<path d="M41.5341 120.364V132H39.7727V122.125H39.7045L36.9205 123.943V122.261L39.8239 120.364H41.5341Z" fill="white"/>
<path d="M64.7727 123V121.977C64.7727 121.667 64.8277 121.337 64.9375 120.989C65.0511 120.636 65.214 120.297 65.4261 119.972C65.642 119.642 65.9015 119.356 66.2045 119.114L66.9318 119.705C66.6932 120.045 66.4848 120.402 66.3068 120.773C66.1326 121.14 66.0455 121.534 66.0455 121.955V123H64.7727ZM67.6818 123V121.977C67.6818 121.667 67.7367 121.337 67.8466 120.989C67.9602 120.636 68.1231 120.297 68.3352 119.972C68.5511 119.642 68.8106 119.356 69.1136 119.114L69.8409 119.705C69.6023 120.045 69.3939 120.402 69.2159 120.773C69.0417 121.14 68.9545 121.534 68.9545 121.955V123H67.6818ZM80.8665 123H79.4574C79.3741 122.595 79.2282 122.239 79.0199 121.932C78.8153 121.625 78.5653 121.367 78.2699 121.159C77.9782 120.947 77.6544 120.788 77.2983 120.682C76.9422 120.576 76.571 120.523 76.1847 120.523C75.4801 120.523 74.8419 120.701 74.2699 121.057C73.7017 121.413 73.2491 121.938 72.9119 122.631C72.5786 123.324 72.4119 124.174 72.4119 125.182C72.4119 126.189 72.5786 127.04 72.9119 127.733C73.2491 128.426 73.7017 128.951 74.2699 129.307C74.8419 129.663 75.4801 129.841 76.1847 129.841C76.571 129.841 76.9422 129.788 77.2983 129.682C77.6544 129.576 77.9782 129.419 78.2699 129.21C78.5653 128.998 78.8153 128.739 79.0199 128.432C79.2282 128.121 79.3741 127.765 79.4574 127.364H80.8665C80.7604 127.958 80.5672 128.491 80.2869 128.96C80.0066 129.43 79.6581 129.83 79.2415 130.159C78.8248 130.485 78.357 130.733 77.8381 130.903C77.3229 131.074 76.7718 131.159 76.1847 131.159C75.1922 131.159 74.3097 130.917 73.5369 130.432C72.7642 129.947 72.1563 129.258 71.7131 128.364C71.2699 127.47 71.0483 126.409 71.0483 125.182C71.0483 123.955 71.2699 122.894 71.7131 122C72.1563 121.106 72.7642 120.417 73.5369 119.932C74.3097 119.447 75.1922 119.205 76.1847 119.205C76.7718 119.205 77.3229 119.29 77.8381 119.46C78.357 119.631 78.8248 119.881 79.2415 120.21C79.6581 120.536 80.0066 120.934 80.2869 121.403C80.5672 121.869 80.7604 122.402 80.8665 123ZM82.9616 131V122.273H84.2571V123.591H84.348C84.5071 123.159 84.795 122.809 85.2116 122.54C85.6283 122.271 86.098 122.136 86.6207 122.136C86.7192 122.136 86.8423 122.138 86.9901 122.142C87.1378 122.146 87.2495 122.152 87.3253 122.159V123.523C87.2798 123.511 87.1757 123.494 87.0128 123.472C86.8537 123.445 86.6851 123.432 86.5071 123.432C86.0829 123.432 85.7041 123.521 85.3707 123.699C85.0412 123.873 84.7798 124.116 84.5866 124.426C84.3973 124.733 84.3026 125.083 84.3026 125.477V131H82.9616ZM92.3082 131.182C91.4673 131.182 90.742 130.996 90.1321 130.625C89.526 130.25 89.0582 129.727 88.7287 129.057C88.4029 128.383 88.2401 127.598 88.2401 126.705C88.2401 125.811 88.4029 125.023 88.7287 124.341C89.0582 123.655 89.5166 123.121 90.1037 122.739C90.6946 122.352 91.384 122.159 92.1719 122.159C92.6264 122.159 93.0753 122.235 93.5185 122.386C93.9616 122.538 94.3651 122.784 94.7287 123.125C95.0923 123.462 95.3821 123.909 95.598 124.466C95.8139 125.023 95.9219 125.708 95.9219 126.523V127.091H89.1946V125.932H94.5582C94.5582 125.439 94.4598 125 94.2628 124.614C94.0696 124.227 93.7931 123.922 93.4332 123.699C93.0772 123.475 92.6567 123.364 92.1719 123.364C91.6378 123.364 91.1757 123.496 90.7855 123.761C90.3991 124.023 90.1018 124.364 89.8935 124.784C89.6851 125.205 89.581 125.655 89.581 126.136V126.909C89.581 127.568 89.6946 128.127 89.9219 128.585C90.1529 129.04 90.473 129.386 90.8821 129.625C91.2912 129.86 91.7666 129.977 92.3082 129.977C92.6605 129.977 92.9787 129.928 93.2628 129.83C93.5507 129.727 93.7988 129.576 94.0071 129.375C94.2154 129.17 94.3764 128.917 94.4901 128.614L95.7855 128.977C95.6491 129.417 95.42 129.803 95.098 130.136C94.776 130.466 94.3783 130.723 93.9048 130.909C93.4313 131.091 92.8991 131.182 92.3082 131.182ZM100.53 131.205C99.9768 131.205 99.4749 131.1 99.0241 130.892C98.5734 130.68 98.2154 130.375 97.9503 129.977C97.6851 129.576 97.5526 129.091 97.5526 128.523C97.5526 128.023 97.651 127.617 97.848 127.307C98.045 126.992 98.3082 126.746 98.6378 126.568C98.9673 126.39 99.331 126.258 99.7287 126.17C100.13 126.08 100.534 126.008 100.939 125.955C101.469 125.886 101.899 125.835 102.229 125.801C102.562 125.763 102.804 125.701 102.956 125.614C103.111 125.527 103.189 125.375 103.189 125.159V125.114C103.189 124.553 103.036 124.117 102.729 123.807C102.426 123.496 101.965 123.341 101.348 123.341C100.708 123.341 100.206 123.481 99.8423 123.761C99.4787 124.042 99.223 124.341 99.0753 124.659L97.8026 124.205C98.0298 123.674 98.3329 123.261 98.7116 122.966C99.0942 122.667 99.5109 122.458 99.9616 122.341C100.416 122.22 100.863 122.159 101.303 122.159C101.583 122.159 101.905 122.193 102.268 122.261C102.636 122.326 102.99 122.46 103.331 122.665C103.676 122.869 103.962 123.178 104.189 123.591C104.416 124.004 104.53 124.557 104.53 125.25V131H103.189V129.818H103.121C103.03 130.008 102.878 130.21 102.666 130.426C102.454 130.642 102.172 130.826 101.82 130.977C101.467 131.129 101.037 131.205 100.53 131.205ZM100.734 130C101.265 130 101.712 129.896 102.075 129.688C102.443 129.479 102.719 129.21 102.905 128.881C103.094 128.551 103.189 128.205 103.189 127.841V126.614C103.132 126.682 103.007 126.744 102.814 126.801C102.625 126.854 102.405 126.902 102.155 126.943C101.909 126.981 101.668 127.015 101.433 127.045C101.202 127.072 101.015 127.095 100.871 127.114C100.522 127.159 100.196 127.233 99.8935 127.335C99.5942 127.434 99.3518 127.583 99.1662 127.784C98.9844 127.981 98.8935 128.25 98.8935 128.591C98.8935 129.057 99.0658 129.409 99.4105 129.648C99.759 129.883 100.2 130 100.734 130ZM110.773 122.273V123.409H106.25V122.273H110.773ZM107.568 120.182H108.909V128.5C108.909 128.879 108.964 129.163 109.074 129.352C109.188 129.538 109.331 129.663 109.506 129.727C109.684 129.788 109.871 129.818 110.068 129.818C110.216 129.818 110.337 129.811 110.432 129.795C110.527 129.777 110.602 129.761 110.659 129.75L110.932 130.955C110.841 130.989 110.714 131.023 110.551 131.057C110.388 131.095 110.182 131.114 109.932 131.114C109.553 131.114 109.182 131.032 108.818 130.869C108.458 130.706 108.159 130.458 107.92 130.125C107.686 129.792 107.568 129.371 107.568 128.864V120.182ZM116.355 131.182C115.514 131.182 114.789 130.996 114.179 130.625C113.573 130.25 113.105 129.727 112.776 129.057C112.45 128.383 112.287 127.598 112.287 126.705C112.287 125.811 112.45 125.023 112.776 124.341C113.105 123.655 113.563 123.121 114.151 122.739C114.741 122.352 115.431 122.159 116.219 122.159C116.673 122.159 117.122 122.235 117.565 122.386C118.009 122.538 118.412 122.784 118.776 123.125C119.139 123.462 119.429 123.909 119.645 124.466C119.861 125.023 119.969 125.708 119.969 126.523V127.091H113.241V125.932H118.605C118.605 125.439 118.507 125 118.31 124.614C118.116 124.227 117.84 123.922 117.48 123.699C117.124 123.475 116.704 123.364 116.219 123.364C115.685 123.364 115.223 123.496 114.832 123.761C114.446 124.023 114.149 124.364 113.94 124.784C113.732 125.205 113.628 125.655 113.628 126.136V126.909C113.628 127.568 113.741 128.127 113.969 128.585C114.2 129.04 114.52 129.386 114.929 129.625C115.338 129.86 115.813 129.977 116.355 129.977C116.707 129.977 117.026 129.928 117.31 129.83C117.598 129.727 117.846 129.576 118.054 129.375C118.262 129.17 118.423 128.917 118.537 128.614L119.832 128.977C119.696 129.417 119.467 129.803 119.145 130.136C118.823 130.466 118.425 130.723 117.952 130.909C117.478 131.091 116.946 131.182 116.355 131.182ZM129.077 131.205C128.524 131.205 128.022 131.1 127.571 130.892C127.12 130.68 126.762 130.375 126.497 129.977C126.232 129.576 126.099 129.091 126.099 128.523C126.099 128.023 126.198 127.617 126.395 127.307C126.592 126.992 126.855 126.746 127.185 126.568C127.514 126.39 127.878 126.258 128.276 126.17C128.677 126.08 129.08 126.008 129.486 125.955C130.016 125.886 130.446 125.835 130.776 125.801C131.109 125.763 131.351 125.701 131.503 125.614C131.658 125.527 131.736 125.375 131.736 125.159V125.114C131.736 124.553 131.582 124.117 131.276 123.807C130.973 123.496 130.512 123.341 129.895 123.341C129.255 123.341 128.753 123.481 128.389 123.761C128.026 124.042 127.77 124.341 127.622 124.659L126.349 124.205C126.577 123.674 126.88 123.261 127.259 122.966C127.641 122.667 128.058 122.458 128.509 122.341C128.963 122.22 129.41 122.159 129.849 122.159C130.13 122.159 130.452 122.193 130.815 122.261C131.183 122.326 131.537 122.46 131.878 122.665C132.223 122.869 132.509 123.178 132.736 123.591C132.963 124.004 133.077 124.557 133.077 125.25V131H131.736V129.818H131.668C131.577 130.008 131.425 130.21 131.213 130.426C131.001 130.642 130.719 130.826 130.366 130.977C130.014 131.129 129.584 131.205 129.077 131.205ZM129.281 130C129.812 130 130.259 129.896 130.622 129.688C130.99 129.479 131.266 129.21 131.452 128.881C131.641 128.551 131.736 128.205 131.736 127.841V126.614C131.679 126.682 131.554 126.744 131.361 126.801C131.171 126.854 130.952 126.902 130.702 126.943C130.455 126.981 130.215 127.015 129.98 127.045C129.749 127.072 129.562 127.095 129.418 127.114C129.069 127.159 128.743 127.233 128.44 127.335C128.141 127.434 127.899 127.583 127.713 127.784C127.531 127.981 127.44 128.25 127.44 128.591C127.44 129.057 127.613 129.409 127.957 129.648C128.306 129.883 128.747 130 129.281 130ZM142.32 131L139.138 119.364H140.57L143.001 128.841H143.115L145.592 119.364H147.183L149.661 128.841H149.774L152.206 119.364H153.638L150.456 131H149.001L146.433 121.727H146.342L143.774 131H142.32ZM157.945 131.182C157.157 131.182 156.465 130.994 155.871 130.619C155.28 130.244 154.818 129.72 154.484 129.045C154.155 128.371 153.99 127.583 153.99 126.682C153.99 125.773 154.155 124.979 154.484 124.301C154.818 123.623 155.28 123.097 155.871 122.722C156.465 122.347 157.157 122.159 157.945 122.159C158.732 122.159 159.422 122.347 160.013 122.722C160.607 123.097 161.07 123.623 161.399 124.301C161.732 124.979 161.899 125.773 161.899 126.682C161.899 127.583 161.732 128.371 161.399 129.045C161.07 129.72 160.607 130.244 160.013 130.619C159.422 130.994 158.732 131.182 157.945 131.182ZM157.945 129.977C158.543 129.977 159.036 129.824 159.422 129.517C159.808 129.21 160.094 128.807 160.28 128.307C160.465 127.807 160.558 127.265 160.558 126.682C160.558 126.098 160.465 125.555 160.28 125.051C160.094 124.547 159.808 124.14 159.422 123.83C159.036 123.519 158.543 123.364 157.945 123.364C157.346 123.364 156.854 123.519 156.467 123.83C156.081 124.14 155.795 124.547 155.609 125.051C155.424 125.555 155.331 126.098 155.331 126.682C155.331 127.265 155.424 127.807 155.609 128.307C155.795 128.807 156.081 129.21 156.467 129.517C156.854 129.824 157.346 129.977 157.945 129.977ZM163.946 131V122.273H165.241V123.591H165.332C165.491 123.159 165.779 122.809 166.196 122.54C166.613 122.271 167.082 122.136 167.605 122.136C167.704 122.136 167.827 122.138 167.974 122.142C168.122 122.146 168.234 122.152 168.31 122.159V123.523C168.264 123.511 168.16 123.494 167.997 123.472C167.838 123.445 167.67 123.432 167.491 123.432C167.067 123.432 166.688 123.521 166.355 123.699C166.026 123.873 165.764 124.116 165.571 124.426C165.382 124.733 165.287 125.083 165.287 125.477V131H163.946ZM171.149 127.818L171.126 126.159H171.399L175.217 122.273H176.876L172.808 126.386H172.695L171.149 127.818ZM169.899 131V119.364H171.24V131H169.899ZM175.445 131L172.036 126.682L172.99 125.75L177.149 131H175.445ZM182.489 122.273V123.409H177.784V122.273H182.489ZM179.193 131V121.068C179.193 120.568 179.311 120.152 179.545 119.818C179.78 119.485 180.085 119.235 180.46 119.068C180.835 118.902 181.231 118.818 181.648 118.818C181.977 118.818 182.246 118.845 182.455 118.898C182.663 118.951 182.818 119 182.92 119.045L182.534 120.205C182.466 120.182 182.371 120.153 182.25 120.119C182.133 120.085 181.977 120.068 181.784 120.068C181.341 120.068 181.021 120.18 180.824 120.403C180.631 120.627 180.534 120.955 180.534 121.386V131H179.193ZM185.709 119.364V131H184.368V119.364H185.709ZM191.71 131.182C190.922 131.182 190.231 130.994 189.636 130.619C189.045 130.244 188.583 129.72 188.25 129.045C187.92 128.371 187.756 127.583 187.756 126.682C187.756 125.773 187.92 124.979 188.25 124.301C188.583 123.623 189.045 123.097 189.636 122.722C190.231 122.347 190.922 122.159 191.71 122.159C192.498 122.159 193.188 122.347 193.778 122.722C194.373 123.097 194.835 123.623 195.165 124.301C195.498 124.979 195.665 125.773 195.665 126.682C195.665 127.583 195.498 128.371 195.165 129.045C194.835 129.72 194.373 130.244 193.778 130.619C193.188 130.994 192.498 131.182 191.71 131.182ZM191.71 129.977C192.309 129.977 192.801 129.824 193.188 129.517C193.574 129.21 193.86 128.807 194.045 128.307C194.231 127.807 194.324 127.265 194.324 126.682C194.324 126.098 194.231 125.555 194.045 125.051C193.86 124.547 193.574 124.14 193.188 123.83C192.801 123.519 192.309 123.364 191.71 123.364C191.112 123.364 190.619 123.519 190.233 123.83C189.847 124.14 189.561 124.547 189.375 125.051C189.189 125.555 189.097 126.098 189.097 126.682C189.097 127.265 189.189 127.807 189.375 128.307C189.561 128.807 189.847 129.21 190.233 129.517C190.619 129.824 191.112 129.977 191.71 129.977ZM199.392 131L196.733 122.273H198.142L200.028 128.955H200.119L201.983 122.273H203.415L205.256 128.932H205.347L207.233 122.273H208.642L205.983 131H204.665L202.756 124.295H202.619L200.71 131H199.392ZM212.284 119.364V120.386C212.284 120.697 212.227 121.028 212.114 121.381C212.004 121.729 211.841 122.068 211.625 122.398C211.413 122.723 211.155 123.008 210.852 123.25L210.125 122.659C210.364 122.318 210.57 121.964 210.744 121.597C210.922 121.225 211.011 120.83 211.011 120.409V119.364H212.284ZM215.193 119.364V120.386C215.193 120.697 215.136 121.028 215.023 121.381C214.913 121.729 214.75 122.068 214.534 122.398C214.322 122.723 214.064 123.008 213.761 123.25L213.034 122.659C213.273 122.318 213.479 121.964 213.653 121.597C213.831 121.225 213.92 120.83 213.92 120.409V119.364H215.193Z" fill="#F1F1F1"/>
<circle cx="40" cy="212" r="15.5" stroke="#494949"/>
<path d="M36.1193 217V215.727L40.0568 211.648C40.4773 211.205 40.8239 210.816 41.0966 210.483C41.3731 210.146 41.5795 209.826 41.7159 209.523C41.8523 209.22 41.9205 208.898 41.9205 208.557C41.9205 208.17 41.8295 207.837 41.6477 207.557C41.4659 207.273 41.2178 207.055 40.9034 206.903C40.589 206.748 40.2348 206.67 39.8409 206.67C39.4242 206.67 39.0606 206.756 38.75 206.926C38.4394 207.097 38.2008 207.337 38.0341 207.648C37.8674 207.958 37.7841 208.322 37.7841 208.739H36.108C36.108 208.03 36.2708 207.411 36.5966 206.881C36.9223 206.35 37.3693 205.939 37.9375 205.648C38.5057 205.352 39.1515 205.205 39.875 205.205C40.6061 205.205 41.25 205.35 41.8068 205.642C42.3674 205.93 42.8049 206.324 43.1193 206.824C43.4337 207.32 43.5909 207.881 43.5909 208.506C43.5909 208.938 43.5095 209.36 43.3466 209.773C43.1875 210.186 42.9091 210.646 42.5114 211.153C42.1136 211.657 41.5606 212.269 40.8523 212.989L38.5398 215.409V215.494H43.7784V217H36.1193Z" fill="white"/>
<path d="M69 217H65.4091V205.364H69.1591C70.2879 205.364 71.2538 205.597 72.0568 206.062C72.8598 206.525 73.4754 207.189 73.9034 208.057C74.3314 208.92 74.5455 209.955 74.5455 211.159C74.5455 212.371 74.3295 213.415 73.8977 214.29C73.4659 215.161 72.8371 215.831 72.0114 216.301C71.1856 216.767 70.1818 217 69 217ZM66.8182 215.75H68.9091C69.8712 215.75 70.6686 215.564 71.3011 215.193C71.9337 214.822 72.4053 214.294 72.7159 213.608C73.0265 212.922 73.1818 212.106 73.1818 211.159C73.1818 210.22 73.0284 209.411 72.7216 208.733C72.4148 208.051 71.9564 207.528 71.3466 207.165C70.7367 206.797 69.9773 206.614 69.0682 206.614H66.8182V215.75ZM80.3864 217.182C79.5455 217.182 78.8201 216.996 78.2102 216.625C77.6042 216.25 77.1364 215.727 76.8068 215.057C76.4811 214.383 76.3182 213.598 76.3182 212.705C76.3182 211.811 76.4811 211.023 76.8068 210.341C77.1364 209.655 77.5947 209.121 78.1818 208.739C78.7727 208.352 79.4621 208.159 80.25 208.159C80.7045 208.159 81.1534 208.235 81.5966 208.386C82.0398 208.538 82.4432 208.784 82.8068 209.125C83.1705 209.462 83.4602 209.909 83.6761 210.466C83.892 211.023 84 211.708 84 212.523V213.091H77.2727V211.932H82.6364C82.6364 211.439 82.5379 211 82.3409 210.614C82.1477 210.227 81.8712 209.922 81.5114 209.699C81.1553 209.475 80.7348 209.364 80.25 209.364C79.7159 209.364 79.2538 209.496 78.8636 209.761C78.4773 210.023 78.1799 210.364 77.9716 210.784C77.7633 211.205 77.6591 211.655 77.6591 212.136V212.909C77.6591 213.568 77.7727 214.127 78 214.585C78.2311 215.04 78.5511 215.386 78.9602 215.625C79.3693 215.86 79.8447 215.977 80.3864 215.977C80.7386 215.977 81.0568 215.928 81.3409 215.83C81.6288 215.727 81.8769 215.576 82.0852 215.375C82.2936 215.17 82.4545 214.917 82.5682 214.614L83.8636 214.977C83.7273 215.417 83.4981 215.803 83.1761 216.136C82.8542 216.466 82.4564 216.723 81.983 216.909C81.5095 217.091 80.9773 217.182 80.3864 217.182ZM92.2216 210.227L91.017 210.568C90.9413 210.367 90.8295 210.172 90.6818 209.983C90.5379 209.79 90.3409 209.631 90.0909 209.506C89.8409 209.381 89.5208 209.318 89.1307 209.318C88.5966 209.318 88.1515 209.441 87.7955 209.688C87.4432 209.93 87.267 210.239 87.267 210.614C87.267 210.947 87.3883 211.21 87.6307 211.403C87.8731 211.597 88.2519 211.758 88.767 211.886L90.0625 212.205C90.8428 212.394 91.4242 212.684 91.8068 213.074C92.1894 213.46 92.3807 213.958 92.3807 214.568C92.3807 215.068 92.2367 215.515 91.9489 215.909C91.6648 216.303 91.267 216.614 90.7557 216.841C90.2443 217.068 89.6496 217.182 88.9716 217.182C88.0814 217.182 87.3447 216.989 86.7614 216.602C86.178 216.216 85.8087 215.652 85.6534 214.909L86.9261 214.591C87.0473 215.061 87.2765 215.413 87.6136 215.648C87.9545 215.883 88.3996 216 88.9489 216C89.5739 216 90.0701 215.867 90.4375 215.602C90.8087 215.333 90.9943 215.011 90.9943 214.636C90.9943 214.333 90.8883 214.08 90.6761 213.875C90.464 213.667 90.1383 213.511 89.6989 213.409L88.2443 213.068C87.4451 212.879 86.858 212.585 86.483 212.188C86.1117 211.786 85.9261 211.284 85.9261 210.682C85.9261 210.189 86.0644 209.754 86.3409 209.375C86.6212 208.996 87.0019 208.699 87.483 208.483C87.9678 208.267 88.517 208.159 89.1307 208.159C89.9943 208.159 90.6723 208.348 91.1648 208.727C91.661 209.106 92.0133 209.606 92.2216 210.227ZM97.9446 217.182C97.1264 217.182 96.4219 216.989 95.831 216.602C95.2401 216.216 94.7855 215.684 94.4673 215.006C94.1491 214.328 93.9901 213.553 93.9901 212.682C93.9901 211.795 94.1529 211.013 94.4787 210.335C94.8082 209.653 95.2666 209.121 95.8537 208.739C96.4446 208.352 97.134 208.159 97.9219 208.159C98.5355 208.159 99.0885 208.273 99.581 208.5C100.073 208.727 100.477 209.045 100.791 209.455C101.106 209.864 101.301 210.341 101.376 210.886H100.036C99.9332 210.489 99.706 210.136 99.3537 209.83C99.0052 209.519 98.5355 209.364 97.9446 209.364C97.4219 209.364 96.9635 209.5 96.5696 209.773C96.1795 210.042 95.8745 210.422 95.6548 210.915C95.4389 211.403 95.331 211.977 95.331 212.636C95.331 213.311 95.437 213.898 95.6491 214.398C95.8651 214.898 96.1681 215.286 96.5582 215.562C96.9522 215.839 97.4143 215.977 97.9446 215.977C98.2931 215.977 98.6094 215.917 98.8935 215.795C99.1776 215.674 99.4181 215.5 99.6151 215.273C99.812 215.045 99.9522 214.773 100.036 214.455H101.376C101.301 214.97 101.113 215.434 100.814 215.847C100.518 216.256 100.126 216.581 99.6378 216.824C99.1529 217.062 98.5885 217.182 97.9446 217.182ZM103.337 217V208.273H104.632V209.591H104.723C104.882 209.159 105.17 208.809 105.587 208.54C106.003 208.271 106.473 208.136 106.996 208.136C107.094 208.136 107.217 208.138 107.365 208.142C107.513 208.146 107.625 208.152 107.7 208.159V209.523C107.655 209.511 107.551 209.494 107.388 209.472C107.229 209.445 107.06 209.432 106.882 209.432C106.458 209.432 106.079 209.521 105.746 209.699C105.416 209.873 105.155 210.116 104.962 210.426C104.772 210.733 104.678 211.083 104.678 211.477V217H103.337ZM109.29 217V208.273H110.631V217H109.29ZM109.972 206.818C109.71 206.818 109.485 206.729 109.295 206.551C109.11 206.373 109.017 206.159 109.017 205.909C109.017 205.659 109.11 205.445 109.295 205.267C109.485 205.089 109.71 205 109.972 205C110.233 205 110.456 205.089 110.642 205.267C110.831 205.445 110.926 205.659 110.926 205.909C110.926 206.159 110.831 206.373 110.642 206.551C110.456 206.729 110.233 206.818 109.972 206.818ZM113.268 217V205.364H114.609V209.659H114.723C114.821 209.508 114.958 209.314 115.132 209.08C115.31 208.841 115.564 208.629 115.893 208.443C116.227 208.254 116.678 208.159 117.246 208.159C117.981 208.159 118.628 208.343 119.189 208.71C119.75 209.078 120.187 209.598 120.501 210.273C120.816 210.947 120.973 211.742 120.973 212.659C120.973 213.583 120.816 214.384 120.501 215.062C120.187 215.737 119.751 216.259 119.195 216.631C118.638 216.998 117.996 217.182 117.268 217.182C116.708 217.182 116.259 217.089 115.922 216.903C115.585 216.714 115.325 216.5 115.143 216.261C114.962 216.019 114.821 215.818 114.723 215.659H114.564V217H113.268ZM114.587 212.636C114.587 213.295 114.683 213.877 114.876 214.381C115.07 214.881 115.352 215.273 115.723 215.557C116.094 215.837 116.549 215.977 117.087 215.977C117.647 215.977 118.115 215.83 118.49 215.534C118.869 215.235 119.153 214.833 119.342 214.33C119.536 213.822 119.632 213.258 119.632 212.636C119.632 212.023 119.537 211.47 119.348 210.977C119.162 210.481 118.88 210.089 118.501 209.801C118.126 209.509 117.655 209.364 117.087 209.364C116.541 209.364 116.083 209.502 115.712 209.778C115.34 210.051 115.06 210.434 114.871 210.926C114.681 211.415 114.587 211.985 114.587 212.636ZM126.683 217.182C125.842 217.182 125.117 216.996 124.507 216.625C123.901 216.25 123.433 215.727 123.104 215.057C122.778 214.383 122.615 213.598 122.615 212.705C122.615 211.811 122.778 211.023 123.104 210.341C123.433 209.655 123.892 209.121 124.479 208.739C125.07 208.352 125.759 208.159 126.547 208.159C127.001 208.159 127.45 208.235 127.893 208.386C128.337 208.538 128.74 208.784 129.104 209.125C129.467 209.462 129.757 209.909 129.973 210.466C130.189 211.023 130.297 211.708 130.297 212.523V213.091H123.57V211.932H128.933C128.933 211.439 128.835 211 128.638 210.614C128.445 210.227 128.168 209.922 127.808 209.699C127.452 209.475 127.032 209.364 126.547 209.364C126.013 209.364 125.551 209.496 125.161 209.761C124.774 210.023 124.477 210.364 124.268 210.784C124.06 211.205 123.956 211.655 123.956 212.136V212.909C123.956 213.568 124.07 214.127 124.297 214.585C124.528 215.04 124.848 215.386 125.257 215.625C125.666 215.86 126.142 215.977 126.683 215.977C127.036 215.977 127.354 215.928 127.638 215.83C127.926 215.727 128.174 215.576 128.382 215.375C128.59 215.17 128.751 214.917 128.865 214.614L130.161 214.977C130.024 215.417 129.795 215.803 129.473 216.136C129.151 216.466 128.753 216.723 128.28 216.909C127.806 217.091 127.274 217.182 126.683 217.182ZM136.837 217V208.273H138.178V217H136.837ZM137.518 206.818C137.257 206.818 137.032 206.729 136.842 206.551C136.657 206.373 136.564 206.159 136.564 205.909C136.564 205.659 136.657 205.445 136.842 205.267C137.032 205.089 137.257 205 137.518 205C137.78 205 138.003 205.089 138.189 205.267C138.378 205.445 138.473 205.659 138.473 205.909C138.473 206.159 138.378 206.373 138.189 206.551C138.003 206.729 137.78 206.818 137.518 206.818ZM144.429 208.273V209.409H139.906V208.273H144.429ZM141.224 206.182H142.565V214.5C142.565 214.879 142.62 215.163 142.73 215.352C142.844 215.538 142.988 215.663 143.162 215.727C143.34 215.788 143.527 215.818 143.724 215.818C143.872 215.818 143.993 215.811 144.088 215.795C144.183 215.777 144.259 215.761 144.315 215.75L144.588 216.955C144.497 216.989 144.37 217.023 144.207 217.057C144.045 217.095 143.838 217.114 143.588 217.114C143.209 217.114 142.838 217.032 142.474 216.869C142.115 216.706 141.815 216.458 141.577 216.125C141.342 215.792 141.224 215.371 141.224 214.864V206.182Z" fill="#F1F1F1"/>
<circle cx="40" cy="315" r="15.5" stroke="#494949"/>
<path d="M40.1705 320.159C39.3902 320.159 38.6932 320.025 38.0795 319.756C37.4697 319.487 36.9867 319.114 36.6307 318.636C36.2784 318.155 36.089 317.598 36.0625 316.966H37.8466C37.8693 317.311 37.9848 317.61 38.1932 317.864C38.4053 318.114 38.6818 318.307 39.0227 318.443C39.3636 318.58 39.7424 318.648 40.1591 318.648C40.6174 318.648 41.0227 318.568 41.375 318.409C41.7311 318.25 42.0095 318.028 42.2102 317.744C42.411 317.456 42.5114 317.125 42.5114 316.75C42.5114 316.36 42.411 316.017 42.2102 315.722C42.0133 315.422 41.7235 315.187 41.3409 315.017C40.9621 314.847 40.5038 314.761 39.9659 314.761H38.983V313.33H39.9659C40.3977 313.33 40.7765 313.252 41.1023 313.097C41.4318 312.941 41.6894 312.725 41.875 312.449C42.0606 312.169 42.1534 311.841 42.1534 311.466C42.1534 311.106 42.072 310.794 41.9091 310.528C41.75 310.259 41.5227 310.049 41.2273 309.898C40.9356 309.746 40.5909 309.67 40.1932 309.67C39.8144 309.67 39.4602 309.741 39.1307 309.881C38.8049 310.017 38.5398 310.214 38.3352 310.472C38.1307 310.725 38.0208 311.03 38.0057 311.386H36.3068C36.3258 310.758 36.5114 310.205 36.8636 309.727C37.2197 309.25 37.6894 308.877 38.2727 308.608C38.8561 308.339 39.5038 308.205 40.2159 308.205C40.9621 308.205 41.6061 308.35 42.1477 308.642C42.6932 308.93 43.1136 309.314 43.4091 309.795C43.7083 310.277 43.8561 310.803 43.8523 311.375C43.8561 312.027 43.6742 312.58 43.3068 313.034C42.9432 313.489 42.4583 313.794 41.8523 313.949V314.04C42.625 314.157 43.2235 314.464 43.6477 314.96C44.0758 315.456 44.2879 316.072 44.2841 316.807C44.2879 317.447 44.1098 318.021 43.75 318.528C43.3939 319.036 42.9072 319.436 42.2898 319.727C41.6723 320.015 40.9659 320.159 40.1705 320.159Z" fill="white"/>
<path d="M65.8864 321H64.4091L68.6818 309.364H70.1364L74.4091 321H72.9318L69.4545 311.205H69.3636L65.8864 321ZM66.4318 316.455H72.3864V317.705H66.4318V316.455ZM77.3807 315.75V321H76.0398V312.273H77.3352V313.636H77.4489C77.6534 313.193 77.964 312.837 78.3807 312.568C78.7973 312.295 79.3352 312.159 79.9943 312.159C80.5852 312.159 81.1023 312.28 81.5455 312.523C81.9886 312.761 82.3333 313.125 82.5795 313.614C82.8258 314.098 82.9489 314.712 82.9489 315.455V321H81.608V315.545C81.608 314.86 81.4299 314.326 81.0739 313.943C80.7178 313.557 80.2292 313.364 79.608 313.364C79.1799 313.364 78.7973 313.456 78.4602 313.642C78.1269 313.828 77.8636 314.098 77.6705 314.455C77.4773 314.811 77.3807 315.242 77.3807 315.75ZM88.6946 321.182C87.9673 321.182 87.3253 320.998 86.7685 320.631C86.2116 320.259 85.776 319.737 85.4616 319.062C85.1473 318.384 84.9901 317.583 84.9901 316.659C84.9901 315.742 85.1473 314.947 85.4616 314.273C85.776 313.598 86.2135 313.078 86.7741 312.71C87.3348 312.343 87.9825 312.159 88.7173 312.159C89.2855 312.159 89.7344 312.254 90.0639 312.443C90.3973 312.629 90.651 312.841 90.8253 313.08C91.0033 313.314 91.1416 313.508 91.2401 313.659H91.3537V309.364H92.6946V321H91.3991V319.659H91.2401C91.1416 319.818 91.0014 320.019 90.8196 320.261C90.6378 320.5 90.3783 320.714 90.0412 320.903C89.7041 321.089 89.2552 321.182 88.6946 321.182ZM88.8764 319.977C89.4143 319.977 89.8688 319.837 90.2401 319.557C90.6113 319.273 90.8935 318.881 91.0866 318.381C91.2798 317.877 91.3764 317.295 91.3764 316.636C91.3764 315.985 91.2817 315.415 91.0923 314.926C90.9029 314.434 90.6226 314.051 90.2514 313.778C89.8802 313.502 89.4219 313.364 88.8764 313.364C88.3082 313.364 87.8348 313.509 87.456 313.801C87.081 314.089 86.7988 314.481 86.6094 314.977C86.4238 315.47 86.331 316.023 86.331 316.636C86.331 317.258 86.4257 317.822 86.6151 318.33C86.8082 318.833 87.0923 319.235 87.4673 319.534C87.8461 319.83 88.3158 319.977 88.8764 319.977ZM103.359 324.455C102.712 324.455 102.155 324.371 101.689 324.205C101.223 324.042 100.835 323.826 100.524 323.557C100.217 323.292 99.973 323.008 99.7912 322.705L100.859 321.955C100.981 322.114 101.134 322.295 101.32 322.5C101.505 322.708 101.759 322.888 102.081 323.04C102.407 323.195 102.833 323.273 103.359 323.273C104.064 323.273 104.645 323.102 105.104 322.761C105.562 322.42 105.791 321.886 105.791 321.159V319.386H105.678C105.579 319.545 105.439 319.742 105.257 319.977C105.079 320.208 104.821 320.415 104.484 320.597C104.151 320.775 103.7 320.864 103.132 320.864C102.428 320.864 101.795 320.697 101.234 320.364C100.678 320.03 100.236 319.545 99.9105 318.909C99.5885 318.273 99.4276 317.5 99.4276 316.591C99.4276 315.697 99.5848 314.919 99.8991 314.256C100.214 313.589 100.651 313.074 101.212 312.71C101.772 312.343 102.42 312.159 103.155 312.159C103.723 312.159 104.174 312.254 104.507 312.443C104.844 312.629 105.102 312.841 105.28 313.08C105.462 313.314 105.602 313.508 105.7 313.659H105.837V312.273H107.132V321.25C107.132 322 106.962 322.61 106.621 323.08C106.284 323.553 105.829 323.9 105.257 324.119C104.689 324.343 104.056 324.455 103.359 324.455ZM103.314 319.659C103.852 319.659 104.306 319.536 104.678 319.29C105.049 319.044 105.331 318.689 105.524 318.227C105.717 317.765 105.814 317.212 105.814 316.568C105.814 315.939 105.719 315.384 105.53 314.903C105.34 314.422 105.06 314.045 104.689 313.773C104.318 313.5 103.859 313.364 103.314 313.364C102.746 313.364 102.272 313.508 101.893 313.795C101.518 314.083 101.236 314.47 101.047 314.955C100.861 315.439 100.768 315.977 100.768 316.568C100.768 317.174 100.863 317.71 101.053 318.176C101.246 318.638 101.53 319.002 101.905 319.267C102.284 319.528 102.753 319.659 103.314 319.659ZM113.246 321.182C112.405 321.182 111.679 320.996 111.07 320.625C110.464 320.25 109.996 319.727 109.666 319.057C109.34 318.383 109.178 317.598 109.178 316.705C109.178 315.811 109.34 315.023 109.666 314.341C109.996 313.655 110.454 313.121 111.041 312.739C111.632 312.352 112.321 312.159 113.109 312.159C113.564 312.159 114.013 312.235 114.456 312.386C114.899 312.538 115.303 312.784 115.666 313.125C116.03 313.462 116.32 313.909 116.536 314.466C116.751 315.023 116.859 315.708 116.859 316.523V317.091H110.132V315.932H115.496C115.496 315.439 115.397 315 115.2 314.614C115.007 314.227 114.731 313.922 114.371 313.699C114.015 313.475 113.594 313.364 113.109 313.364C112.575 313.364 112.113 313.496 111.723 313.761C111.337 314.023 111.039 314.364 110.831 314.784C110.623 315.205 110.518 315.655 110.518 316.136V316.909C110.518 317.568 110.632 318.127 110.859 318.585C111.09 319.04 111.411 319.386 111.82 319.625C112.229 319.86 112.704 319.977 113.246 319.977C113.598 319.977 113.916 319.928 114.2 319.83C114.488 319.727 114.736 319.576 114.945 319.375C115.153 319.17 115.314 318.917 115.428 318.614L116.723 318.977C116.587 319.417 116.357 319.803 116.036 320.136C115.714 320.466 115.316 320.723 114.842 320.909C114.369 321.091 113.837 321.182 113.246 321.182ZM120.24 315.75V321H118.899V312.273H120.195V313.636H120.308C120.513 313.193 120.823 312.837 121.24 312.568C121.657 312.295 122.195 312.159 122.854 312.159C123.445 312.159 123.962 312.28 124.405 312.523C124.848 312.761 125.193 313.125 125.439 313.614C125.685 314.098 125.808 314.712 125.808 315.455V321H124.467V315.545C124.467 314.86 124.289 314.326 123.933 313.943C123.577 313.557 123.089 313.364 122.467 313.364C122.039 313.364 121.657 313.456 121.32 313.642C120.986 313.828 120.723 314.098 120.53 314.455C120.337 314.811 120.24 315.242 120.24 315.75ZM131.918 321.182C131.077 321.182 130.351 320.996 129.741 320.625C129.135 320.25 128.668 319.727 128.338 319.057C128.012 318.383 127.849 317.598 127.849 316.705C127.849 315.811 128.012 315.023 128.338 314.341C128.668 313.655 129.126 313.121 129.713 312.739C130.304 312.352 130.993 312.159 131.781 312.159C132.236 312.159 132.685 312.235 133.128 312.386C133.571 312.538 133.974 312.784 134.338 313.125C134.702 313.462 134.991 313.909 135.207 314.466C135.423 315.023 135.531 315.708 135.531 316.523V317.091H128.804V315.932H134.168C134.168 315.439 134.069 315 133.872 314.614C133.679 314.227 133.402 313.922 133.043 313.699C132.687 313.475 132.266 313.364 131.781 313.364C131.247 313.364 130.785 313.496 130.395 313.761C130.009 314.023 129.711 314.364 129.503 314.784C129.295 315.205 129.19 315.655 129.19 316.136V316.909C129.19 317.568 129.304 318.127 129.531 318.585C129.762 319.04 130.082 319.386 130.491 319.625C130.901 319.86 131.376 319.977 131.918 319.977C132.27 319.977 132.588 319.928 132.872 319.83C133.16 319.727 133.408 319.576 133.616 319.375C133.825 319.17 133.986 318.917 134.099 318.614L135.395 318.977C135.259 319.417 135.029 319.803 134.707 320.136C134.385 320.466 133.988 320.723 133.514 320.909C133.041 321.091 132.509 321.182 131.918 321.182ZM137.571 321V312.273H138.866V313.591H138.957C139.116 313.159 139.404 312.809 139.821 312.54C140.238 312.271 140.707 312.136 141.23 312.136C141.329 312.136 141.452 312.138 141.599 312.142C141.747 312.146 141.859 312.152 141.935 312.159V313.523C141.889 313.511 141.785 313.494 141.622 313.472C141.463 313.445 141.295 313.432 141.116 313.432C140.692 313.432 140.313 313.521 139.98 313.699C139.651 313.873 139.389 314.116 139.196 314.426C139.007 314.733 138.912 315.083 138.912 315.477V321H137.571ZM146.092 321.205C145.539 321.205 145.037 321.1 144.587 320.892C144.136 320.68 143.778 320.375 143.513 319.977C143.248 319.576 143.115 319.091 143.115 318.523C143.115 318.023 143.214 317.617 143.411 317.307C143.607 316.992 143.871 316.746 144.2 316.568C144.53 316.39 144.893 316.258 145.291 316.17C145.693 316.08 146.096 316.008 146.501 315.955C147.032 315.886 147.462 315.835 147.791 315.801C148.125 315.763 148.367 315.701 148.518 315.614C148.674 315.527 148.751 315.375 148.751 315.159V315.114C148.751 314.553 148.598 314.117 148.291 313.807C147.988 313.496 147.528 313.341 146.911 313.341C146.27 313.341 145.768 313.481 145.405 313.761C145.041 314.042 144.786 314.341 144.638 314.659L143.365 314.205C143.592 313.674 143.895 313.261 144.274 312.966C144.657 312.667 145.073 312.458 145.524 312.341C145.979 312.22 146.426 312.159 146.865 312.159C147.145 312.159 147.467 312.193 147.831 312.261C148.198 312.326 148.553 312.46 148.893 312.665C149.238 312.869 149.524 313.178 149.751 313.591C149.979 314.004 150.092 314.557 150.092 315.25V321H148.751V319.818H148.683C148.592 320.008 148.441 320.21 148.229 320.426C148.017 320.642 147.734 320.826 147.382 320.977C147.03 321.129 146.6 321.205 146.092 321.205ZM146.297 320C146.827 320 147.274 319.896 147.638 319.688C148.005 319.479 148.282 319.21 148.467 318.881C148.657 318.551 148.751 318.205 148.751 317.841V316.614C148.695 316.682 148.57 316.744 148.376 316.801C148.187 316.854 147.967 316.902 147.717 316.943C147.471 316.981 147.231 317.015 146.996 317.045C146.765 317.072 146.577 317.095 146.433 317.114C146.085 317.159 145.759 317.233 145.456 317.335C145.157 317.434 144.914 317.583 144.729 317.784C144.547 317.981 144.456 318.25 144.456 318.591C144.456 319.057 144.628 319.409 144.973 319.648C145.321 319.883 145.763 320 146.297 320ZM156.335 312.273V313.409H151.812V312.273H156.335ZM153.131 310.182H154.472V318.5C154.472 318.879 154.527 319.163 154.636 319.352C154.75 319.538 154.894 319.663 155.068 319.727C155.246 319.788 155.434 319.818 155.631 319.818C155.778 319.818 155.9 319.811 155.994 319.795C156.089 319.777 156.165 319.761 156.222 319.75L156.494 320.955C156.403 320.989 156.277 321.023 156.114 321.057C155.951 321.095 155.744 321.114 155.494 321.114C155.116 321.114 154.744 321.032 154.381 320.869C154.021 320.706 153.722 320.458 153.483 320.125C153.248 319.792 153.131 319.371 153.131 318.864V310.182ZM161.918 321.182C161.077 321.182 160.351 320.996 159.741 320.625C159.135 320.25 158.668 319.727 158.338 319.057C158.012 318.383 157.849 317.598 157.849 316.705C157.849 315.811 158.012 315.023 158.338 314.341C158.668 313.655 159.126 313.121 159.713 312.739C160.304 312.352 160.993 312.159 161.781 312.159C162.236 312.159 162.685 312.235 163.128 312.386C163.571 312.538 163.974 312.784 164.338 313.125C164.702 313.462 164.991 313.909 165.207 314.466C165.423 315.023 165.531 315.708 165.531 316.523V317.091H158.804V315.932H164.168C164.168 315.439 164.069 315 163.872 314.614C163.679 314.227 163.402 313.922 163.043 313.699C162.687 313.475 162.266 313.364 161.781 313.364C161.247 313.364 160.785 313.496 160.395 313.761C160.009 314.023 159.711 314.364 159.503 314.784C159.295 315.205 159.19 315.655 159.19 316.136V316.909C159.19 317.568 159.304 318.127 159.531 318.585C159.762 319.04 160.082 319.386 160.491 319.625C160.901 319.86 161.376 319.977 161.918 319.977C162.27 319.977 162.588 319.928 162.872 319.83C163.16 319.727 163.408 319.576 163.616 319.375C163.825 319.17 163.986 318.917 164.099 318.614L165.395 318.977C165.259 319.417 165.029 319.803 164.707 320.136C164.385 320.466 163.988 320.723 163.514 320.909C163.041 321.091 162.509 321.182 161.918 321.182ZM169.344 309.364L169.23 317.727H167.912L167.798 309.364H169.344ZM168.571 321.091C168.291 321.091 168.05 320.991 167.849 320.79C167.649 320.589 167.548 320.348 167.548 320.068C167.548 319.788 167.649 319.547 167.849 319.347C168.05 319.146 168.291 319.045 168.571 319.045C168.851 319.045 169.092 319.146 169.293 319.347C169.493 319.547 169.594 319.788 169.594 320.068C169.594 320.254 169.546 320.424 169.452 320.58C169.361 320.735 169.238 320.86 169.082 320.955C168.931 321.045 168.76 321.091 168.571 321.091Z" fill="#F1F1F1"/>
<line x1="-4.37114e-08" y1="176.5" x2="280" y2="176.5" stroke="#494949"/>
<rect x="122" y="202" width="148" height="10" rx="2" fill="url(#paint6_linear_5887_2871)"/>
<rect x="122" y="224" width="148" height="56" rx="2" fill="url(#paint7_linear_5887_2871)"/>
<line x1="132.5" y1="235.5" x2="260.5" y2="235.5" stroke="url(#paint8_linear_5887_2871)" stroke-opacity="0.7" stroke-linecap="round"/>
<line x1="132.5" y1="242.5" x2="260.5" y2="242.5" stroke="url(#paint9_linear_5887_2871)" stroke-opacity="0.7" stroke-linecap="round"/>
<line x1="132.5" y1="249.5" x2="260.5" y2="249.5" stroke="url(#paint10_linear_5887_2871)" stroke-opacity="0.7" stroke-linecap="round"/>
<line x1="132.5" y1="256.5" x2="222.5" y2="256.5" stroke="url(#paint11_linear_5887_2871)" stroke-opacity="0.7" stroke-linecap="round"/>
<path d="M147 367L145.75 364.25L143 363L145.75 361.75L147 359L148.25 361.75L151 363L148.25 364.25L147 367ZM154.5 367.5L157 362L159.5 367.5L165 370L159.5 372.5L157 378L154.5 372.5L149 370L154.5 367.5ZM147 373L148.25 375.75L151 377L148.25 378.25L147 381L145.75 378.25L143 377L145.75 375.75L147 373Z" fill="#FFC633"/>
<path d="M223.5 128.154C242.543 110.277 277.011 70.144 236.634 38.154M236.634 38.154L248.634 39.902M236.634 38.154L235.847 49.0505" stroke="#F1F1F1" stroke-linecap="round"/>
<path d="M175.377 313.62C196 313.62 227 330 212 377M212 377L205 367.5M212 377L223 370.5" stroke="#F1F1F1" stroke-linecap="round"/>
<defs>
<linearGradient id="paint0_linear_5887_2871" x1="280" y1="292" x2="101" y2="292" gradientUnits="userSpaceOnUse">
<stop stop-color="#494949"/>
<stop offset="1" stop-color="#494949" stop-opacity="0"/>
</linearGradient>
<linearGradient id="paint1_linear_5887_2871" x1="50" y1="85" x2="50" y2="114" gradientUnits="userSpaceOnUse">
<stop stop-color="#494949"/>
<stop offset="0.682692" stop-color="#494949" stop-opacity="0"/>
</linearGradient>
<linearGradient id="paint2_linear_5887_2871" x1="110" y1="85" x2="110" y2="114" gradientUnits="userSpaceOnUse">
<stop stop-color="#494949"/>
<stop offset="0.682692" stop-color="#494949" stop-opacity="0"/>
</linearGradient>
<linearGradient id="paint3_linear_5887_2871" x1="170" y1="85" x2="170" y2="114" gradientUnits="userSpaceOnUse">
<stop stop-color="#494949"/>
<stop offset="0.682692" stop-color="#494949" stop-opacity="0"/>
</linearGradient>
<linearGradient id="paint4_linear_5887_2871" x1="230" y1="85" x2="230" y2="114" gradientUnits="userSpaceOnUse">
<stop stop-color="#494949"/>
<stop offset="0.682692" stop-color="#494949" stop-opacity="0"/>
</linearGradient>
<linearGradient id="paint5_linear_5887_2871" x1="154" y1="388.359" x2="238" y2="388.359" gradientUnits="userSpaceOnUse">
<stop stop-color="#FF8544"/>
<stop offset="0.5" stop-color="#EC517C"/>
<stop offset="1" stop-color="#9C5AF2"/>
</linearGradient>
<linearGradient id="paint6_linear_5887_2871" x1="122" y1="207" x2="270" y2="207" gradientUnits="userSpaceOnUse">
<stop stop-color="#494949" stop-opacity="0"/>
<stop offset="1" stop-color="#585858"/>
</linearGradient>
<linearGradient id="paint7_linear_5887_2871" x1="122" y1="252" x2="270" y2="252" gradientUnits="userSpaceOnUse">
<stop stop-color="#494949" stop-opacity="0"/>
<stop offset="1" stop-color="#585858"/>
</linearGradient>
<linearGradient id="paint8_linear_5887_2871" x1="132" y1="236.5" x2="261" y2="236.5" gradientUnits="userSpaceOnUse">
<stop stop-color="#808080" stop-opacity="0"/>
<stop offset="1" stop-color="#F4F4F4"/>
</linearGradient>
<linearGradient id="paint9_linear_5887_2871" x1="132" y1="243.5" x2="261" y2="243.5" gradientUnits="userSpaceOnUse">
<stop stop-color="#808080" stop-opacity="0"/>
<stop offset="1" stop-color="#F4F4F4"/>
</linearGradient>
<linearGradient id="paint10_linear_5887_2871" x1="132" y1="250.5" x2="261" y2="250.5" gradientUnits="userSpaceOnUse">
<stop stop-color="#808080" stop-opacity="0"/>
<stop offset="1" stop-color="#F4F4F4"/>
</linearGradient>
<linearGradient id="paint11_linear_5887_2871" x1="132" y1="257.5" x2="223" y2="257.5" gradientUnits="userSpaceOnUse">
<stop stop-color="#808080" stop-opacity="0"/>
<stop offset="1" stop-color="#F4F4F4"/>
</linearGradient>
</defs>
</svg>
